<svg width="340" height="301" viewBox="0 0 340 301" fill="none" xmlns="http://www.w3.org/2000/svg">
<path d="M49.7915 274.798C116.18 309.485 223.817 309.485 290.206 274.798C356.594 240.112 356.602 183.887 290.206 149.2C223.809 114.514 116.18 114.522 49.7915 149.2C-16.5972 183.879 -16.5972 240.12 49.7915 274.798Z" fill="#F5F5F5"/>
<path d="M244.965 222.107C260.41 222.107 272.931 215.815 272.931 208.054C272.931 200.292 260.41 194 244.965 194C229.52 194 217 200.292 217 208.054C217 215.815 229.52 222.107 244.965 222.107Z" fill="#EAEAEA"/>
<path d="M96.0842 212.276C96.0842 212.276 98.8637 194.568 92.6887 179.338C86.5138 164.109 78.1907 163.169 73.8791 165.333C69.5674 167.496 72.3392 175.943 76.1889 181.617C81.3167 189.062 89.7861 205.093 89.5089 219.491L96.0842 212.276Z" fill="#4F46E5"/>
<path opacity="0.2" d="M96.0842 212.276C96.0842 212.276 98.8637 194.568 92.6887 179.338C86.5138 164.109 78.1907 163.169 73.8791 165.333C69.5674 167.496 72.3392 175.943 76.1889 181.617C81.3167 189.062 89.7861 205.093 89.5089 219.491L96.0842 212.276Z" fill="#141414"/>
<path d="M93.3117 213.4C93.2426 213.398 93.1746 213.382 93.1117 213.353C93.0489 213.324 92.9924 213.283 92.9457 213.232C92.899 213.181 92.8631 213.121 92.84 213.056C92.8169 212.991 92.8071 212.922 92.8113 212.853C93.8276 188.607 81.7164 170.506 76.4885 166.98C76.4314 166.941 76.3824 166.892 76.3443 166.835C76.3062 166.777 76.2798 166.713 76.2666 166.645C76.2534 166.578 76.2536 166.508 76.2672 166.441C76.2809 166.373 76.3077 166.309 76.3461 166.252C76.3845 166.195 76.4338 166.146 76.4912 166.108C76.5485 166.07 76.6128 166.043 76.6804 166.03C76.7479 166.017 76.8174 166.017 76.8849 166.031C76.9524 166.045 77.0165 166.071 77.0737 166.11C83.2332 170.221 94.8747 188.731 93.8507 212.899C93.8487 212.968 93.8332 213.035 93.8049 213.097C93.7766 213.16 93.7362 213.216 93.6861 213.262C93.6359 213.309 93.577 213.345 93.5127 213.369C93.4484 213.392 93.3801 213.403 93.3117 213.4Z" fill="white"/>
<path d="M94.9911 233.304C93.9363 230.655 91.2107 227.698 84.2119 224.542C77.2132 221.385 71.9468 217.173 70.9766 214.124C70.6847 213.282 70.6465 212.373 70.8669 211.509C71.0873 210.645 71.5565 209.865 72.2162 209.266C72.2162 209.266 65.6178 208.496 64.7863 204.454C63.7469 199.357 69.5137 199.026 69.5137 199.026C69.5137 199.026 61.9452 188.37 59.9357 183.627C57.9261 178.884 60.2436 178.599 65.1251 180.409C70.0065 182.218 79.3074 191.326 80.7472 194.106C80.7472 194.106 83.2649 191.026 85.9751 193.051C88.6853 195.076 88.8162 201.135 87.2147 203.322C88.2947 203.121 89.4098 203.237 90.4251 203.656C91.4404 204.076 92.3124 204.781 92.9354 205.686C95.6917 209.297 96.6003 218.328 96.6003 218.328L94.9911 233.304Z" fill="#4F46E5"/>
<path d="M95.484 230.839C95.3671 230.837 95.2539 230.797 95.162 230.725C95.0701 230.652 95.0047 230.552 94.9759 230.438C91.234 214.847 73.4714 189.963 62.4381 182.048C62.382 182.008 62.3343 181.957 62.2978 181.899C62.2612 181.84 62.2365 181.775 62.2251 181.707C62.2136 181.639 62.2157 181.57 62.2311 181.503C62.2465 181.436 62.275 181.372 62.3149 181.316C62.3549 181.26 62.4055 181.212 62.4639 181.176C62.5222 181.139 62.5872 181.114 62.6552 181.103C62.7231 181.092 62.7926 181.094 62.8597 181.109C62.9268 181.124 62.9903 181.153 63.0464 181.193C74.2183 189.208 92.2041 214.408 95.9999 230.192C96.0301 230.328 96.0058 230.47 95.9324 230.588C95.859 230.706 95.7423 230.79 95.6072 230.823L95.484 230.839Z" fill="white"/>
<path d="M46.5361 247.978L197.056 161.077V43.4307L46.5361 130.331V247.978Z" fill="#908AEF"/>
<path opacity="0.6" d="M46.5361 247.978L197.056 161.077V43.4307L46.5361 130.331V247.978Z" fill="white"/>
<path d="M39.5918 126.322L46.5367 130.33L197.057 43.43L204.002 31.3975L39.5918 126.322Z" fill="#191919"/>
<path d="M204.003 165.092V31.3975L197.058 43.43V161.077L204.003 165.092Z" fill="#2C2C2C"/>
<path d="M39.5918 126.321L46.5367 130.33V247.977L39.5918 260.009V126.321Z" fill="#2C2C2C"/>
<path d="M46.5367 247.977L197.057 161.076L204.002 165.091L39.5918 260.009L46.5367 247.977Z" fill="#191919"/>
<path d="M204.001 31.3971L199.367 28.7246L34.957 123.649L39.5911 126.321L204.001 31.3971Z" fill="#2C2C2C"/>
<path d="M34.957 123.648L39.5911 126.321V260.009L34.957 257.337V123.648Z" fill="#252525"/>
<path d="M197.056 43.4307L194.739 44.7669L194.733 159.747L46.5361 245.305V247.978L197.056 161.077V43.4307Z" fill="#252525"/>
<path d="M256.485 151.571C256.302 151.322 256.404 134.632 250.746 129.67C245.087 124.708 240.096 128.644 243.372 134.588C245.571 138.51 251.647 145.451 251.655 152.099L256.485 151.571Z" fill="#4F46E5"/>
<path opacity="0.6" d="M256.485 151.571C256.302 151.322 256.404 134.632 250.746 129.67C245.087 124.708 240.096 128.644 243.372 134.588C245.571 138.51 251.647 145.451 251.655 152.099L256.485 151.571Z" fill="white"/>
<path d="M254.5 151.961C254.426 151.962 254.353 151.934 254.298 151.884C254.242 151.834 254.207 151.765 254.2 151.69C252.499 135.689 246.093 129.957 246.027 129.899C245.967 129.846 245.93 129.772 245.925 129.692C245.919 129.613 245.945 129.534 245.998 129.474C246.05 129.413 246.125 129.376 246.204 129.371C246.284 129.365 246.363 129.392 246.423 129.444C246.694 129.679 253.078 135.359 254.801 151.624C254.809 151.705 254.785 151.785 254.735 151.848C254.684 151.912 254.61 151.952 254.53 151.961H254.5Z" fill="white"/>
<path d="M255.395 169.237C253.32 159.818 250.359 154.35 238.639 148.318C227.842 142.755 218.555 136.876 229.352 134.743C238.316 132.969 255.571 147.204 256.186 159.664L255.395 169.237Z" fill="#4F46E5"/>
<path d="M254.242 157.4C254.181 157.401 254.12 157.383 254.069 157.349C254.018 157.315 253.979 157.266 253.956 157.209C250.416 147.768 239.106 138.636 229.306 137.265C229.227 137.252 229.156 137.209 229.108 137.145C229.06 137.08 229.039 137 229.05 136.92C229.055 136.881 229.068 136.843 229.088 136.808C229.109 136.774 229.136 136.744 229.168 136.72C229.2 136.696 229.236 136.679 229.275 136.669C229.314 136.659 229.355 136.658 229.394 136.664C239.407 138.064 250.914 147.373 254.528 156.997C254.554 157.072 254.549 157.156 254.515 157.228C254.481 157.301 254.42 157.357 254.345 157.385L254.242 157.4Z" fill="white"/>
<path d="M324.184 46.0089L255.79 6.52346C254.067 5.52661 252.638 6.14231 252.352 7.87946C252.512 6.78848 252.901 5.74366 253.493 4.81381C254.086 3.88397 254.868 3.09019 255.79 2.48476L258.634 0.835563C259.716 0.286341 260.913 0.000110626 262.127 0.000110626C263.34 0.000110626 264.537 0.286341 265.619 0.835563L334.021 40.321C335.05 40.9697 335.899 41.8671 336.491 42.9304L326.654 48.6109C326.068 47.5457 325.217 46.6495 324.184 46.0089Z" fill="#191919"/>
<path d="M337.51 208.62C337.445 209.833 337.094 211.012 336.487 212.063C335.879 213.114 335.032 214.006 334.014 214.667L331.17 216.331C330.184 216.826 329.105 217.106 328.004 217.154C326.902 217.202 325.803 217.017 324.778 216.61C326.428 217.233 327.71 216.302 327.71 214.308V52.0568C327.666 50.8422 327.313 49.659 326.684 48.6191L336.521 42.9385C337.147 43.9819 337.497 45.1674 337.539 46.3835L337.51 208.62Z" fill="#252525"/>
<path d="M324.184 46.0079L255.79 6.52252C253.862 5.40839 252.301 6.30995 252.301 8.5382V170.775C252.367 171.986 252.717 173.165 253.323 174.215C253.929 175.266 254.774 176.159 255.79 176.822L324.184 216.33C326.119 217.436 327.673 216.535 327.673 214.307V52.055C327.608 50.8435 327.259 49.6643 326.653 48.6135C326.046 47.5627 325.2 46.67 324.184 46.0079ZM324.396 191.306C324.396 192.647 323.465 193.189 322.3 192.515L257.674 155.199C257.057 154.8 256.544 154.259 256.178 153.622C255.812 152.984 255.604 152.269 255.57 151.534V31.5243C255.57 30.183 256.508 29.6406 257.674 30.3149L260.246 31.7809L322.3 67.6161C322.916 68.0158 323.428 68.557 323.792 69.1944C324.157 69.8319 324.364 70.5473 324.396 71.2809V191.306Z" fill="#2C2C2C"/>
<path d="M289.984 179.624C291.392 180.549 292.563 181.791 293.402 183.252C294.241 184.712 294.725 186.35 294.814 188.032C294.814 191.125 292.615 192.386 289.962 190.832C288.55 189.911 287.375 188.671 286.532 187.211C285.689 185.752 285.202 184.115 285.109 182.432C285.131 179.331 287.308 178.078 289.984 179.624Z" fill="#252525"/>
<path d="M265.407 34.7782L257.667 30.3144C256.509 29.64 255.57 30.1824 255.57 31.5238V151.571C255.604 152.304 255.812 153.019 256.177 153.656C256.541 154.293 257.052 154.834 257.667 155.235L265.407 159.707V34.7782Z" fill="#252525"/>
<g opacity="0.15">
<path d="M324.398 71.261V178.591L260.248 141.568V31.7976L322.301 67.6328C322.913 68.029 323.421 68.5643 323.785 69.195C324.15 69.8256 324.36 70.5337 324.398 71.261Z" fill="#141414"/>
</g>
<path d="M260.649 32.4991L322.102 67.9825C322.649 68.346 323.103 68.8308 323.432 69.3992C323.76 69.9675 323.952 70.604 323.993 71.2589V177.892L260.649 141.324V32.4991ZM260.246 31.7661V141.566L324.396 178.596V71.2589C324.364 70.5252 324.157 69.8098 323.792 69.1724C323.428 68.5349 322.916 67.9937 322.3 67.594L260.246 31.7588V31.7661Z" fill="white"/>
<path d="M324.404 191.306V182.379L265.406 148.317L256.186 153.632C256.532 154.271 257.037 154.811 257.651 155.2L322.293 192.516C323.458 193.19 324.404 192.648 324.404 191.306Z" fill="#191919"/>
<path d="M324.403 186.158L304.737 197.512V193.73L324.403 182.376V186.158Z" fill="#4F46E5"/>
<path opacity="0.2" d="M324.403 186.158L304.737 197.512V193.73L324.403 182.376V186.158Z" fill="#141414"/>
<path d="M242.465 157.778L304.739 193.731V197.513L242.465 161.561V157.778Z" fill="#4F46E5"/>
<path opacity="0.2" d="M242.465 157.778L304.739 193.731V197.513L242.465 161.561V157.778Z" fill="#141414"/>
<path d="M265.407 144.527L242.465 157.78L304.739 193.732L324.404 182.378V178.589L265.407 144.527Z" fill="#4F46E5"/>
<path d="M265.407 144.527L242.465 157.78L304.739 193.732L324.404 182.378V178.589L265.407 144.527Z" fill="#4F46E5"/>
<path d="M265.979 114.593C264.029 114.593 262.541 114.71 258.942 119.929C255.893 124.327 245.917 138.121 245.324 138.774C244.73 139.426 249.824 141.75 249.824 141.75L263.296 128.212L265.979 114.593Z" fill="#BD8966"/>
<path d="M247.347 137.66C247.347 137.66 248.417 137.089 251.122 137.111C252.8 137.111 253.848 137.228 254.053 136.685C254.325 135.872 254.984 134.377 255.329 134.384V138.364L247.347 137.66Z" fill="#D39972"/>
<path d="M242.611 197.324C238.104 203.276 234.585 204.654 233.354 205.944C232.122 207.234 232.833 209.777 235.846 210.342C238.858 210.906 242.12 210.217 244.063 208.275C246.005 206.332 247.346 203.804 249.325 202.411C251.304 201.018 252.323 200.623 252.624 198.951C252.924 197.28 251.414 192.311 251.414 192.311L242.611 197.324Z" fill="#252525"/>
<path d="M244.772 188.25C245.19 190.412 245.659 192.303 244.186 194.905C243.707 195.741 243.181 196.549 242.61 197.324C239.978 200.865 237.838 203.628 237.479 204.112C237.12 204.595 239.333 206.135 241.877 205.079C244.42 204.024 246.612 200.256 248.268 197.984C249.001 196.972 249.734 196.056 250.306 195.345C251.08 194.399 251.482 193.203 251.435 191.981L251.295 188.529L244.772 188.25Z" fill="#BD8966"/>
<path d="M253.584 205.782C249.076 211.741 245.557 213.112 244.326 214.409C243.095 215.707 243.813 218.235 246.818 218.807C249.823 219.379 253.092 218.675 255.035 216.74C256.977 214.805 258.319 212.262 260.305 210.876C262.291 209.491 263.303 209.081 263.596 207.409C263.889 205.738 262.394 200.769 262.394 200.769L253.584 205.782Z" fill="#252525"/>
<path d="M255.747 196.709C256.172 198.871 256.633 200.762 255.16 203.364C254.685 204.202 254.159 205.01 253.584 205.783C250.953 209.324 248.813 212.087 248.453 212.571C248.094 213.054 250.308 214.601 252.851 213.546C255.395 212.49 257.586 208.723 259.243 206.45C259.976 205.439 260.709 204.515 261.281 203.812C262.054 202.862 262.456 201.664 262.409 200.44L262.277 196.988L255.747 196.709Z" fill="#BD8966"/>
<path d="M285.138 143.767C288.59 150.862 287.227 157.891 277.896 162.494C272.684 165.067 262.599 169.612 262.599 169.612C262.599 169.612 264.065 173.643 264.116 180.438C264.167 186.419 262.577 199.429 262.577 199.429C262.577 199.429 258.677 201.24 255.885 199.429C255.885 199.429 254.646 191.366 253.686 183.238C252.52 173.027 251.538 167.024 252.058 164.825C252.52 162.883 256.581 160.039 259.681 157.862L248.863 162.949C248.863 162.949 251.186 166.159 251.736 171.942C252.403 178.935 251.56 190.956 251.56 190.956C250.526 191.462 249.397 191.747 248.247 191.795C247.096 191.843 245.948 191.652 244.875 191.234C244.875 191.234 237.26 161.586 238.403 157.474C240.045 151.573 262.518 142.587 263.661 140.271L285.138 143.767Z" fill="#2C2C2C"/>
<path opacity="0.2" d="M285.138 143.767C288.59 150.862 287.227 157.891 277.896 162.494C272.684 165.067 262.599 169.612 262.599 169.612C262.599 169.612 264.065 173.643 264.116 180.438C264.167 186.419 262.577 199.429 262.577 199.429C262.577 199.429 258.677 201.24 255.885 199.429C255.885 199.429 254.646 191.366 253.686 183.238C252.52 173.027 251.538 167.024 252.058 164.825C252.52 162.883 256.581 160.039 259.681 157.862L248.863 162.949C248.863 162.949 251.186 166.159 251.736 171.942C252.403 178.935 251.56 190.956 251.56 190.956C250.526 191.462 249.397 191.747 248.247 191.795C247.096 191.843 245.948 191.652 244.875 191.234C244.875 191.234 237.26 161.586 238.403 157.474C240.045 151.573 262.518 142.587 263.661 140.271L285.138 143.767Z" fill="#141414"/>
<path d="M277.471 114.609C284.508 115.269 285.629 114.14 287.733 119.842L281.283 136.283L285.138 143.767C284.229 145.123 273.484 150.899 264.043 144.009C262.386 137.978 261.065 131.861 260.085 125.684C259.352 120.487 263.955 114.756 266.235 114.528C267.057 114.431 267.884 114.384 268.712 114.389L277.471 114.609Z" fill="white"/>
<path opacity="0.6" d="M277.471 114.609C284.508 115.269 285.629 114.14 287.733 119.842L281.283 136.283L285.138 143.767C284.229 145.123 273.484 150.899 264.043 144.009C262.386 137.978 261.065 131.861 260.085 125.684C259.352 120.487 263.955 114.756 266.235 114.528C267.057 114.431 267.884 114.384 268.712 114.389L277.471 114.609Z" fill="white"/>
<path d="M252.939 137.645C254.405 137.689 254.346 136.751 254.713 135.835C255.145 134.757 255.541 133.797 255.541 133.797L256.509 137.286L257.835 143.751C257.835 143.751 253.943 143.7 251.085 143.751C248.226 143.802 244.979 142.849 244.649 140.819C244.444 139.558 245.382 137.792 248.314 137.513C249.857 137.439 251.403 137.483 252.939 137.645Z" fill="#BD8966"/>
<path d="M255.693 129.393C254.227 129.906 254.608 132.362 255.224 135.111C255.84 137.859 256.859 142.477 257.174 143.694C257.489 144.91 257.907 145.665 259.725 145.665C261.542 145.665 264.504 145.863 265.786 145.665C267.069 145.467 267.252 144.331 266.988 141.744C266.679 138.79 266.219 135.855 265.61 132.948C265.097 130.493 264.782 129.188 263.258 129.188C261.484 129.166 257.233 128.858 255.693 129.393Z" fill="#252525"/>
<path d="M255.6 136.816C255.747 137.461 257.066 137.997 258.268 138.048C260.008 138.116 261.75 137.998 263.465 137.696C264.689 137.366 265.466 139.477 264.286 141.405C263.106 143.333 260.438 143.919 257.184 143.743C256.207 142.781 255.56 141.534 255.337 140.181C255.238 139.052 255.327 137.916 255.6 136.816Z" fill="#BD8966"/>
<path d="M281.311 136.281C281.311 136.281 280.578 137.498 278.299 137.498C280.315 136.127 282.066 133.415 283.708 130.168L281.311 136.281Z" fill="#4F46E5"/>
<path opacity="0.1" d="M281.311 136.281C281.311 136.281 280.578 137.498 278.299 137.498C280.315 136.127 282.066 133.415 283.708 130.168L281.311 136.281Z" fill="white"/>
<path d="M284.501 115.35C288.385 116.083 290.005 119.748 290.123 126.931C290.24 134.114 289.316 157.921 289.236 158.976C289.152 159.785 289.286 160.602 289.622 161.343C289.958 162.083 290.485 162.721 291.149 163.191C293.919 165.17 297.262 166.761 298.896 167.867C301.051 169.333 298.896 171.723 296.25 171.884C293.773 172.038 289.807 169.89 288.796 169.047C289.297 169.713 289.686 170.456 289.947 171.246C290.379 172.932 289.947 173.922 289.17 173.57C288.73 173.372 288.195 172.705 286.678 170.851C284.046 167.618 283.482 166.167 283.452 162.15C283.452 159.431 283.225 145.409 283.005 140.073C282.866 136.804 282.895 129.701 282.954 125.289C283.013 120.876 283.687 115.973 284.501 115.35Z" fill="#BD8966"/>
<path d="M260.42 101.254C260.42 101.254 257.95 97.3103 259.687 93.5208C261.425 89.7313 268.527 84.7837 276.627 88.302C284.323 91.6517 283.641 100.506 283.67 104.515C283.722 108.312 260.42 101.254 260.42 101.254Z" fill="#252525"/>
<path d="M262.68 93.2864C263.801 91.0874 270.926 87.5765 277.698 91.0141C284.471 94.4518 283.687 103.709 283.687 110.071V121.799C283.687 123.47 279.765 125.772 275.998 124.438L276.269 107.308C276.269 107.308 277.325 96.8486 274.07 94.3418C270.816 91.8351 262.68 93.2864 262.68 93.2864Z" fill="#252525"/>
<path d="M276.269 102.484C276.709 102.748 277.339 101.898 277.881 101.326C278.424 100.754 280.205 99.9846 281.084 101.846C281.964 103.708 279.941 106.281 278.739 107.116C278.403 107.409 277.982 107.587 277.539 107.625C277.095 107.664 276.65 107.56 276.269 107.329L276.152 114.556C276.152 114.556 274.37 118.47 270.104 119.049C265.839 119.628 266.711 116.117 268.111 114.38V111.734C267.044 111.962 265.948 112.017 264.864 111.895C264.307 111.749 262.973 110.144 262.115 108.348C261.155 106.325 259.55 102.741 260.979 96.6789C262.511 90.1701 269.503 89.9722 273.681 92.5962C277.859 95.2203 276.269 102.484 276.269 102.484Z" fill="#BD8966"/>
<path d="M268.119 111.735C268.119 111.735 272.077 110.936 273.455 110.203C274.27 109.781 274.937 109.121 275.368 108.312C275.157 109.11 274.789 109.857 274.283 110.511C273.272 111.801 268.119 112.753 268.119 112.753V111.735Z" fill="#D39972"/>
<path d="M268.161 102.317C268.167 102.474 268.219 102.626 268.311 102.753C268.402 102.881 268.529 102.979 268.676 103.035C268.823 103.09 268.983 103.102 269.136 103.067C269.29 103.032 269.429 102.953 269.538 102.84C269.646 102.726 269.719 102.583 269.747 102.428C269.775 102.274 269.756 102.114 269.694 101.97C269.631 101.826 269.528 101.703 269.396 101.618C269.264 101.532 269.11 101.487 268.953 101.488C268.847 101.49 268.742 101.513 268.644 101.556C268.546 101.599 268.458 101.66 268.385 101.738C268.311 101.815 268.253 101.905 268.215 102.005C268.177 102.104 268.159 102.21 268.161 102.317Z" fill="#252525"/>
<path d="M269.005 99.3171L270.699 100.256C270.819 100.023 270.845 99.753 270.771 99.5018C270.697 99.2506 270.53 99.0375 270.303 98.9064C270.191 98.8459 270.069 98.8085 269.942 98.7964C269.816 98.7843 269.688 98.7979 269.567 98.8362C269.446 98.8745 269.334 98.9368 269.237 99.0195C269.141 99.1021 269.062 99.2033 269.005 99.3171Z" fill="#252525"/>
<path d="M277.678 86.7756L278.14 89.5756C278.519 89.5092 278.858 89.2958 279.081 88.9816C279.305 88.6674 279.396 88.2778 279.334 87.8971C279.302 87.7133 279.233 87.5379 279.131 87.3813C279.03 87.2248 278.898 87.0902 278.743 86.9856C278.589 86.881 278.415 86.8085 278.232 86.7724C278.049 86.7363 277.86 86.7374 277.678 86.7756Z" fill="#252525"/>
<path d="M281.063 88.1624L278.467 89.2916C278.627 89.6395 278.917 89.911 279.275 90.048C279.632 90.185 280.029 90.1767 280.381 90.0248C280.55 89.9499 280.702 89.8416 280.829 89.7065C280.955 89.5714 281.053 89.4122 281.117 89.2384C281.181 89.0645 281.209 88.8797 281.199 88.6948C281.19 88.51 281.144 88.3289 281.063 88.1624Z" fill="#252525"/>
<path d="M268.704 107.214L266.893 107.896C266.931 108.018 266.994 108.131 267.078 108.228C267.162 108.325 267.264 108.404 267.38 108.461C267.495 108.517 267.62 108.549 267.748 108.555C267.876 108.562 268.004 108.542 268.124 108.497C268.367 108.399 268.563 108.211 268.671 107.972C268.779 107.733 268.791 107.461 268.704 107.214Z" fill="#D39972"/>
<path d="M261.097 99.9848L262.644 98.7897C262.571 98.6855 262.477 98.5972 262.369 98.5302C262.26 98.4631 262.139 98.4187 262.013 98.3995C261.887 98.3803 261.759 98.3868 261.635 98.4186C261.512 98.4503 261.396 98.5067 261.295 98.5844C261.089 98.7479 260.953 98.9844 260.916 99.2451C260.88 99.5057 260.944 99.7705 261.097 99.9848Z" fill="#252525"/>
<path d="M261.571 102.087C261.579 102.242 261.631 102.392 261.722 102.517C261.814 102.642 261.94 102.738 262.085 102.792C262.23 102.847 262.388 102.857 262.539 102.823C262.69 102.788 262.828 102.71 262.935 102.598C263.042 102.486 263.114 102.345 263.142 102.192C263.169 102.04 263.152 101.882 263.091 101.74C263.03 101.597 262.929 101.476 262.799 101.39C262.67 101.305 262.518 101.259 262.363 101.259C262.149 101.265 261.945 101.355 261.797 101.51C261.648 101.665 261.567 101.873 261.571 102.087Z" fill="#252525"/>
<path d="M264.87 101.73L265.515 106.457L262.906 106.091L264.87 101.73Z" fill="#D39972"/>
<path d="M262.643 92.5825C262.643 92.5825 266.227 100.257 276.906 99.1793C276.906 99.1793 278.138 93.8286 273.923 91.7616C269.708 89.6946 264.666 89.5773 262.643 92.5825Z" fill="#252525"/>
<path d="M273.676 98.2183C274.929 98.3796 275.296 100.293 274.988 101.883C274.68 103.474 276.19 103.606 277.37 101.883C278.129 100.563 278.559 99.0799 278.623 97.5586L273.676 98.2183Z" fill="#252525"/>
<path d="M259.711 157.884C259.711 157.884 266.22 153.486 268.119 152.614C268.119 152.614 264.454 151.881 262.68 149.477C262.978 150.615 263.501 151.682 264.219 152.614L248.893 162.971L259.711 157.884Z" fill="#4F46E5"/>
<path opacity="0.4" d="M259.711 157.884C259.711 157.884 266.22 153.486 268.119 152.614C268.119 152.614 264.454 151.881 262.68 149.477C262.978 150.615 263.501 151.682 264.219 152.614L248.893 162.971L259.711 157.884Z" fill="#141414"/>
<path d="M170.528 165.021C170.87 160.906 180.301 145.469 183.185 143.077C186.069 140.684 191.162 134.638 188.968 131.203C186.774 127.769 180.326 129.297 174.27 140.004C169.575 148.308 168.115 166.674 168.115 166.674L170.528 165.021Z" fill="#4F46E5"/>
<path d="M169.237 164.634H169.197C169.165 164.629 169.134 164.618 169.107 164.601C169.079 164.584 169.055 164.562 169.036 164.536C169.017 164.509 169.004 164.479 168.996 164.448C168.989 164.416 168.988 164.383 168.994 164.351C171.659 147.117 177.323 136.366 186.307 131.481C186.365 131.45 186.434 131.443 186.497 131.461C186.528 131.47 186.557 131.486 186.583 131.506C186.608 131.527 186.629 131.552 186.645 131.581C186.661 131.609 186.67 131.641 186.674 131.673C186.677 131.706 186.674 131.739 186.665 131.77C186.656 131.801 186.641 131.831 186.62 131.856C186.6 131.881 186.574 131.903 186.546 131.918C177.705 136.723 172.126 147.36 169.48 164.431C169.47 164.488 169.44 164.539 169.396 164.576C169.351 164.613 169.295 164.634 169.237 164.634Z" fill="white"/>
<path d="M171.477 145.056C171.477 145.056 179.046 131.972 185.316 125.981C188.79 122.66 190.925 120.521 190.736 118.009C190.597 116.103 189.014 115.086 185.609 115.924C178.823 117.592 175.185 124.467 172.842 132.166C171.179 137.586 171.477 145.056 171.477 145.056Z" fill="#4F46E5"/>
<path opacity="0.2" d="M171.477 145.056C171.477 145.056 179.046 131.972 185.316 125.981C188.79 122.66 190.925 120.521 190.736 118.009C190.597 116.103 189.014 115.086 185.609 115.924C178.823 117.592 175.185 124.467 172.842 132.166C171.179 137.586 171.477 145.056 171.477 145.056Z" fill="#141414"/>
<path d="M172.355 142.908H172.321C172.255 142.897 172.197 142.86 172.157 142.806C172.118 142.753 172.102 142.686 172.112 142.62C174.808 125.614 185.053 119.211 188.13 117.652C188.189 117.623 188.257 117.618 188.319 117.638C188.381 117.659 188.433 117.703 188.463 117.761C188.478 117.79 188.487 117.822 188.49 117.855C188.493 117.887 188.489 117.92 188.479 117.951C188.469 117.982 188.452 118.011 188.431 118.035C188.409 118.06 188.383 118.08 188.354 118.094C185.331 119.628 175.264 125.922 172.604 142.699C172.594 142.758 172.564 142.811 172.518 142.85C172.473 142.888 172.415 142.908 172.355 142.908Z" fill="white"/>
<path d="M125.156 138.599L74.7168 167.718V169.957L127.093 200.196L177.526 171.077V168.837L125.156 138.599Z" fill="#4F46E5"/>
<path d="M148.434 178.907L154.217 182.287L163.933 176.679L158.133 173.31L148.434 178.907Z" fill="white"/>
<path opacity="0.15" d="M74.7168 167.719L127.093 197.958V200.197L74.7168 169.958V167.719Z" fill="#141414"/>
<path opacity="0.1" d="M127.094 197.957L177.528 168.838V171.077L127.094 200.196V197.957Z" fill="#141414"/>
<path d="M171.86 158.922L169.612 163.351L169.976 163.536L172.224 159.107L171.86 158.922Z" fill="#252525"/>
<path d="M167.684 158.546L167.341 158.758L169.533 162.299L169.876 162.087L167.684 158.546Z" fill="#252525"/>
<path d="M170.11 158.136V168.806C170.107 168.836 170.096 168.864 170.078 168.889C170.06 168.913 170.037 168.932 170.009 168.944C169.934 168.982 169.852 169.002 169.768 169.002C169.684 169.002 169.601 168.982 169.526 168.944C169.499 168.932 169.476 168.912 169.46 168.888C169.443 168.864 169.433 168.836 169.431 168.806V158.136H170.11Z" fill="#252525"/>
<path d="M173.235 159.769C175.972 159.769 178.191 157.55 178.191 154.813C178.191 152.076 175.972 149.857 173.235 149.857C170.498 149.857 168.279 152.076 168.279 154.813C168.279 157.55 170.498 159.769 173.235 159.769Z" fill="#2C2C2C"/>
<path d="M174.789 153.551C175.426 151.535 176.11 150.749 175.675 150.505C174.855 150.04 173.918 149.819 172.976 149.868C172.034 149.917 171.125 150.233 170.357 150.781C169.588 151.328 168.992 152.084 168.638 152.958C168.284 153.833 168.187 154.79 168.359 155.718C168.53 156.645 168.963 157.505 169.606 158.195C170.249 158.885 171.076 159.378 171.989 159.615C172.902 159.851 173.864 159.822 174.762 159.531C175.659 159.24 176.455 158.699 177.055 157.971C175.59 158.395 173.962 156.162 174.789 153.551Z" fill="#191919"/>
<path d="M165.429 159.701C167.351 159.701 168.91 158.142 168.91 156.22C168.91 154.298 167.351 152.739 165.429 152.739C163.506 152.739 161.948 154.298 161.948 156.22C161.948 158.142 163.506 159.701 165.429 159.701Z" fill="#2C2C2C"/>
<path d="M165.429 152.734C164.698 152.733 163.985 152.964 163.392 153.392C163.302 155.515 165.106 157.595 164.602 158.295C164.098 158.995 162.851 158.56 162.421 157.971C162.729 158.498 163.17 158.935 163.699 159.237C164.229 159.54 164.829 159.698 165.439 159.696C166.049 159.694 166.648 159.531 167.175 159.224C167.703 158.918 168.14 158.478 168.444 157.949C168.748 157.42 168.908 156.82 168.907 156.21C168.906 155.6 168.745 155.001 168.439 154.473C168.134 153.945 167.695 153.506 167.167 153.201C166.639 152.896 166.039 152.735 165.429 152.734Z" fill="#191919"/>
<path d="M175.997 153.92C176.807 150.486 174.68 147.045 171.246 146.234C167.812 145.424 164.372 147.551 163.561 150.985C162.751 154.418 164.877 157.859 168.311 158.67C171.745 159.48 175.186 157.353 175.997 153.92Z" fill="#2C2C2C"/>
<path d="M176.005 153.922C175.756 154.946 175.257 155.892 174.553 156.676C173.849 157.46 172.961 158.057 171.969 158.413C170.977 158.769 169.913 158.873 168.871 158.716C167.829 158.56 166.842 158.147 165.998 157.515C165.155 156.883 164.482 156.051 164.039 155.095C163.597 154.139 163.398 153.088 163.462 152.036C163.525 150.984 163.849 149.964 164.404 149.069C164.958 148.173 165.727 147.428 166.64 146.902C166.086 147.218 165.582 147.613 165.143 148.075C165.033 148.553 164.976 149.043 164.974 149.534C164.963 150.818 165.34 152.075 166.057 153.14C166.773 154.206 167.794 155.03 168.987 155.504C170.18 155.979 171.489 156.082 172.741 155.799C173.993 155.517 175.131 154.863 176.005 153.922Z" fill="#191919"/>
<path d="M84.6237 157.656L82.376 162.085L82.7403 162.27L84.9881 157.841L84.6237 157.656Z" fill="#252525"/>
<path d="M80.4562 157.304L80.1133 157.517L82.3057 161.058L82.6486 160.846L80.4562 157.304Z" fill="#252525"/>
<path d="M82.894 156.889V167.559C82.8919 167.589 82.882 167.617 82.8652 167.641C82.8484 167.665 82.8253 167.685 82.7985 167.697C82.7238 167.735 82.641 167.755 82.5571 167.755C82.4731 167.755 82.3904 167.735 82.3157 167.697C82.2882 167.685 82.2643 167.666 82.2466 167.642C82.2289 167.617 82.218 167.589 82.2148 167.559V156.889H82.894Z" fill="#252525"/>
<path d="M86.0095 158.527C88.7466 158.527 90.9654 156.308 90.9654 153.571C90.9654 150.834 88.7466 148.615 86.0095 148.615C83.2725 148.615 81.0537 150.834 81.0537 153.571C81.0537 156.308 83.2725 158.527 86.0095 158.527Z" fill="#2C2C2C"/>
<path d="M87.5637 152.303C88.2004 150.287 88.8796 149.501 88.4498 149.257C87.629 148.792 86.6925 148.571 85.7503 148.62C84.8082 148.669 83.8995 148.985 83.1311 149.533C82.3628 150.08 81.7666 150.836 81.4127 151.71C81.0588 152.585 80.9619 153.542 81.1333 154.47C81.3047 155.397 81.7374 156.257 82.3805 156.947C83.0235 157.637 83.8503 158.13 84.7635 158.366C85.6768 158.603 86.6386 158.574 87.536 158.283C88.4334 157.992 89.229 157.451 89.8294 156.723C88.3649 157.153 86.7307 154.914 87.5637 152.303Z" fill="#191919"/>
<path d="M78.2024 158.454C80.1248 158.454 81.6832 156.895 81.6832 154.973C81.6832 153.051 80.1248 151.492 78.2024 151.492C76.2801 151.492 74.7217 153.051 74.7217 154.973C74.7217 156.895 76.2801 158.454 78.2024 158.454Z" fill="#2C2C2C"/>
<path d="M78.2043 151.492C77.4735 151.491 76.7609 151.719 76.1667 152.145C76.0712 154.267 77.8806 156.347 77.3765 157.048C76.8724 157.748 75.6255 157.313 75.1904 156.724C75.4974 157.251 75.9377 157.689 76.467 157.992C76.9964 158.296 77.5963 158.455 78.2065 158.454C78.8168 158.452 79.4159 158.291 79.9439 157.985C80.4719 157.679 80.9102 157.239 81.2148 156.71C81.5194 156.182 81.6796 155.582 81.6795 154.972C81.6793 154.362 81.5186 153.762 81.2137 153.234C80.9087 152.705 80.4702 152.266 79.942 151.96C79.4138 151.655 78.8145 151.493 78.2043 151.492Z" fill="#191919"/>
<path d="M87.0735 155.736C89.5683 153.241 89.5683 149.196 87.0734 146.701C84.5786 144.207 80.5337 144.207 78.0388 146.701C75.544 149.196 75.544 153.241 78.0388 155.736C80.5336 158.231 84.5786 158.231 87.0735 155.736Z" fill="#2C2C2C"/>
<path d="M88.7734 152.676C88.5252 153.701 88.0266 154.648 87.3221 155.432C86.6177 156.216 85.7296 156.813 84.7375 157.17C83.7453 157.526 82.6802 157.631 81.6377 157.474C80.5953 157.317 79.608 156.904 78.7647 156.271C77.9213 155.639 77.2482 154.807 76.8057 153.85C76.3633 152.893 76.1653 151.841 76.2296 150.789C76.294 149.737 76.6185 148.717 77.1742 147.821C77.7299 146.925 78.4994 146.181 79.4135 145.656C78.8583 145.969 78.3538 146.365 77.9172 146.829C77.8063 147.307 77.7493 147.797 77.7474 148.288C77.7378 149.571 78.1157 150.826 78.8317 151.89C79.5477 152.955 80.5683 153.778 81.7601 154.252C82.9518 154.726 84.2589 154.83 85.5103 154.548C86.7618 154.267 87.8991 153.615 88.7734 152.676Z" fill="#191919"/>
<path d="M97.9971 161.002L138.737 184.518V148.681L97.9971 125.165V161.002Z" fill="white"/>
<path d="M127.094 171.077V191.24L86.3594 167.718V147.561L127.094 171.077Z" fill="white"/>
<path d="M86.3594 154.278L127.094 177.8V171.077L86.3594 147.561V154.278Z" fill="#EAEAEA"/>
<path d="M97.9973 131.882L138.737 155.398V148.68L97.9973 125.159V131.882Z" fill="#EAEAEA"/>
<path d="M138.735 148.681L165.892 133.002V168.839L138.735 184.518V148.681Z" fill="white"/>
<path d="M127.094 171.078L138.735 159.882V184.518L127.094 191.24V171.078Z" fill="white"/>
<path d="M152.313 125.159L138.735 148.681L165.892 133.001L152.313 125.159Z" fill="white"/>
<path d="M136.794 152.039L152.314 125.159V123.482L136.794 150.363V152.039Z" fill="#4F46E5"/>
<path opacity="0.1" d="M136.794 152.039L152.314 125.159V123.482L136.794 150.363V152.039Z" fill="#141414"/>
<path d="M111.575 99.9648L96.0576 126.842L136.794 150.361L152.311 123.484L111.575 99.9648Z" fill="#4F46E5"/>
<path d="M96.0586 126.84L136.793 150.361V152.038L96.0586 128.522V126.84Z" fill="#4F46E5"/>
<path opacity="0.15" d="M96.0586 126.84L136.793 150.361V152.038L96.0586 128.522V126.84Z" fill="#141414"/>
<path d="M152.312 123.482L169.287 133.283L167.827 134.121L152.312 125.159V123.482Z" fill="#4F46E5"/>
<path opacity="0.15" d="M152.312 123.482L169.287 133.283L167.827 134.121L152.312 125.159V123.482Z" fill="#141414"/>
<path d="M167.827 134.122H165.891V133.002L167.827 134.122Z" fill="#4F46E5"/>
<path opacity="0.3" d="M167.827 134.122H165.891V133.002L167.827 134.122Z" fill="#141414"/>
<path d="M104.247 126.523V118.458L108.89 115.778L113.517 123.79V131.882L104.247 126.523Z" fill="white"/>
<path opacity="0.2" d="M108.889 115.777L103.159 119.083L102.427 118.659L108.889 114.929V115.777Z" fill="#141414"/>
<path d="M113.516 131.882L118.148 123.849L120.514 119.742L113.516 123.791V131.882Z" fill="white"/>
<path opacity="0.4" d="M103.158 119.084H104.246V118.458L103.158 119.084Z" fill="#141414"/>
<path d="M114.619 125.7L108.889 115.778V114.929L115.336 126.114L114.619 125.7Z" fill="#4F46E5"/>
<path opacity="0.1" d="M114.619 125.7L108.889 115.778V114.929L115.336 126.114L114.619 125.7Z" fill="#141414"/>
<path d="M115.336 126.115L108.889 114.93L115.558 111.078L122.005 122.263L115.336 126.115Z" fill="#4F46E5"/>
<path opacity="0.3" d="M115.336 126.115L108.889 114.93L115.558 111.078L122.005 122.263L115.336 126.115Z" fill="white"/>
<path d="M111.202 122.496L106.564 119.816V125.165L111.202 127.844V122.496Z" fill="#2C2C2C"/>
<path d="M107.036 124.889V120.087L111.201 122.496V127.292L107.036 124.889Z" fill="#EAEAEA"/>
<path d="M106.564 125.164L107.037 124.888L111.202 127.291V127.843L106.564 125.164Z" fill="#191919"/>
<path d="M123.637 137.724V129.659L128.286 126.979L132.912 134.991V143.083L123.637 137.724Z" fill="white"/>
<path opacity="0.2" d="M128.286 126.978L122.556 130.284L121.818 129.859L128.286 126.129V126.978Z" fill="#141414"/>
<path d="M132.915 143.082L137.542 135.048L139.908 130.941L132.915 134.99V143.082Z" fill="white"/>
<path opacity="0.4" d="M122.558 130.285H123.64V129.659L122.558 130.285Z" fill="#141414"/>
<path d="M134.018 136.9L128.287 126.978V126.129L134.729 137.314L134.018 136.9Z" fill="#4F46E5"/>
<path opacity="0.1" d="M134.018 136.9L128.287 126.978V126.129L134.729 137.314L134.018 136.9Z" fill="#141414"/>
<path d="M134.729 137.315L128.287 126.13L134.951 122.272L141.398 133.458L134.729 137.315Z" fill="#4F46E5"/>
<path opacity="0.3" d="M134.729 137.315L128.287 126.13L134.951 122.272L141.398 133.458L134.729 137.315Z" fill="white"/>
<path d="M130.595 133.691L125.958 131.017V136.365L130.595 139.045V133.691Z" fill="#2C2C2C"/>
<path d="M126.435 136.089V131.287L130.595 133.691V138.493L126.435 136.089Z" fill="#EAEAEA"/>
<path d="M125.958 136.366L126.436 136.09L130.595 138.493V139.045L125.958 136.366Z" fill="#191919"/>
<path d="M97.9951 134.849L138.735 158.365V159.882L125.157 174.442L84.417 150.921V149.408L97.9951 134.849Z" fill="#4F46E5"/>
<path d="M97.9951 134.849L138.735 158.365L125.157 172.925L84.417 149.408L97.9951 134.849Z" fill="#4F46E5"/>
<path opacity="0.1" d="M125.155 172.923V174.441L138.733 159.881V158.363L125.155 172.923Z" fill="#141414"/>
<path opacity="0.15" d="M125.157 174.441L84.417 150.919V149.407L125.157 172.923V174.441Z" fill="#141414"/>
<path d="M101.88 160.995L92.1809 155.397V165.702L101.88 171.299V160.995Z" fill="#252525"/>
<path d="M92.7744 165.356V155.741L101.88 160.999V170.609L92.7744 165.356Z" fill="white"/>
<path d="M92.7744 155.741V157.986L101.88 163.239V160.994L92.7744 155.741Z" fill="white"/>
<path d="M92.1807 165.701L92.7749 165.356L101.88 170.609V171.299L92.1807 165.701Z" fill="#191919"/>
<path d="M92.1807 160.549L92.7749 160.204L101.88 165.457V166.147L92.1807 160.549Z" fill="#191919"/>
<path d="M96.8271 168.384L97.4214 168.729V158.425L96.8271 158.08V168.384Z" fill="#191919"/>
<path d="M119.336 171.076L109.637 165.479V175.783L119.336 181.381V171.076Z" fill="#252525"/>
<path d="M110.231 175.438V165.823L119.337 171.076V180.691L110.231 175.438Z" fill="white"/>
<path d="M110.231 165.823V168.062L119.337 173.321V171.076L110.231 165.823Z" fill="white"/>
<path d="M109.637 175.772L110.231 175.427L119.336 180.68V181.369L109.637 175.772Z" fill="#191919"/>
<path d="M109.637 170.631L110.231 170.286L119.336 175.539V176.229L109.637 170.631Z" fill="#191919"/>
<path d="M114.284 178.467L114.878 178.812V168.508L114.284 168.163V178.467Z" fill="#191919"/>
<path d="M132.915 172.203L142.614 166.6V176.904L132.915 182.502V172.203Z" fill="#252525"/>
<path d="M142.02 176.558V166.943L132.915 172.202V181.811L142.02 176.558Z" fill="#EAEAEA"/>
<path d="M142.02 166.943V167.93L132.915 173.183V172.202L142.02 166.943Z" fill="#EAEAEA"/>
<path d="M142.614 176.892L142.02 176.547L132.915 181.8V182.49L142.614 176.892Z" fill="#191919"/>
<path d="M142.614 171.751L142.02 171.406L132.915 176.659V177.349L142.614 171.751Z" fill="#191919"/>
<path d="M137.965 179.586L137.371 179.931V169.627L137.965 169.282V179.586Z" fill="#191919"/>
<path d="M148.254 138.854L157.953 133.256V143.56L148.254 149.158V138.854Z" fill="#252525"/>
<path d="M157.359 143.216V133.602L148.254 138.855V148.469L157.359 143.216Z" fill="#EAEAEA"/>
<path d="M157.359 133.602V134.588L148.254 139.841V138.855L157.359 133.602Z" fill="#EAEAEA"/>
<path d="M157.953 143.559L157.359 143.214L148.254 148.467V149.157L157.953 143.559Z" fill="#191919"/>
<path d="M157.953 138.407L157.359 138.062L148.254 143.321V144.011L157.953 138.407Z" fill="#191919"/>
<path d="M153.305 146.246L152.711 146.591V136.286L153.305 135.942V146.246Z" fill="#191919"/>
<path d="M148.433 178.919V161L158.133 155.397V173.321L148.433 178.919Z" fill="#191919"/>
<path d="M157.777 173.05V155.604L148.433 161V178.446L157.777 173.05Z" fill="#2C2C2C"/>
<path d="M158.133 155.397L157.778 155.604V173.05L158.133 173.321V155.397Z" fill="#252525"/>
<path d="M152.053 94.3189V110.482C152.053 111.013 152.425 111.231 152.888 110.964L190.414 89.2964C190.657 89.1377 190.859 88.9241 191.004 88.673C191.15 88.4218 191.234 88.14 191.25 87.8504V71.6741C191.25 71.1439 190.874 70.9254 190.414 71.1921L152.888 92.8601C152.643 93.0194 152.44 93.2349 152.294 93.4886C152.149 93.7423 152.066 94.0269 152.053 94.3189Z" fill="white"/>
<path d="M154.664 94.0648L165.911 87.5737C166.429 87.2749 166.843 87.5159 166.843 88.1104V99.4119C166.825 99.7342 166.732 100.048 166.57 100.327C166.408 100.606 166.182 100.843 165.911 101.019L154.664 107.513C154.15 107.809 153.732 107.568 153.732 106.973V95.6779C153.75 95.3547 153.843 95.0401 154.005 94.7598C154.167 94.4795 154.393 94.2414 154.664 94.0648Z" fill="white"/>
<path d="M163.771 93.2142L160.426 100.149L158.723 99.1654C158.559 99.076 158.367 99.0534 158.188 99.1026C158.008 99.1517 157.854 99.2687 157.759 99.4289L153.732 106.373V106.98C153.732 107.575 154.15 107.816 154.664 107.52L165.911 101.026C166.182 100.85 166.407 100.613 166.569 100.334C166.731 100.055 166.825 99.7414 166.843 99.4193V95.4443L164.594 93.0856C164.543 93.0154 164.475 92.9605 164.395 92.9271C164.315 92.8936 164.228 92.883 164.143 92.8963C164.057 92.9096 163.978 92.9464 163.912 93.0026C163.846 93.0587 163.798 93.1319 163.771 93.2142Z" fill="#4F46E5"/>
<path d="M155.423 98.2012C156.118 97.748 156.696 97.1373 157.111 96.4188C157.526 95.7002 157.765 94.894 157.81 94.0656C157.81 93.3683 157.585 92.8638 157.216 92.5938L154.664 94.0656C154.394 94.2415 154.169 94.4786 154.007 94.7577C153.845 95.0369 153.751 95.3501 153.732 95.6723V98.3619C154.173 98.619 154.764 98.5804 155.423 98.2012Z" fill="#4F46E5"/>
<path d="M171.04 85.6693L187.939 75.9102C188.325 75.6885 188.636 75.8459 188.636 76.2637C188.619 76.4978 188.547 76.7246 188.426 76.9256C188.305 77.1266 188.138 77.2962 187.939 77.4205L171.04 87.1764C170.654 87.3981 170.343 87.2407 170.343 86.8229C170.36 86.5894 170.432 86.3633 170.553 86.1628C170.675 85.9624 170.841 85.7933 171.04 85.6693Z" fill="white"/>
<path d="M171.04 89.0061L187.939 79.247C188.325 79.0253 188.636 79.1827 188.636 79.6005C188.619 79.8346 188.547 80.0613 188.426 80.2624C188.305 80.4634 188.138 80.6329 187.939 80.7573L171.04 90.5132C170.654 90.7349 170.343 90.5774 170.343 90.1629C170.36 89.9288 170.432 89.702 170.553 89.501C170.674 89.3 170.841 89.1304 171.04 89.0061Z" fill="white"/>
<path d="M171.04 92.3465L187.939 82.5907C188.325 82.3689 188.636 82.5264 188.636 82.9409C188.619 83.175 188.547 83.4018 188.426 83.6028C188.305 83.8038 188.138 83.9734 187.939 84.0977L171.04 93.8536C170.654 94.0786 170.343 93.9211 170.343 93.5034C170.36 93.2693 170.432 93.0425 170.553 92.8415C170.674 92.6405 170.841 92.4709 171.04 92.3465Z" fill="white"/>
<path d="M171.04 95.6845L187.939 85.9287C188.325 85.7069 188.637 85.8644 188.637 86.2821C188.619 86.5157 188.547 86.7418 188.426 86.9422C188.305 87.1427 188.138 87.3117 187.939 87.4357L171.04 97.2109C170.654 97.4326 170.343 97.2752 170.343 96.8574C170.357 96.6206 170.428 96.3905 170.549 96.1865C170.671 95.9825 170.839 95.8104 171.04 95.6845Z" fill="white"/>
<path d="M51.0527 157.513V135.065C51.0673 134.791 51.1466 134.524 51.284 134.286C51.4214 134.049 51.6131 133.847 51.8435 133.697L78.7042 118.187C79.1391 117.934 79.4949 118.138 79.4949 118.643V141.09C79.4796 141.364 79.4 141.631 79.2627 141.869C79.1253 142.106 78.934 142.309 78.7042 142.459L51.8435 157.969C51.4055 158.221 51.0527 158.018 51.0527 157.513Z" fill="white"/>
<path d="M51.0527 156.392V157.514C51.0527 158.019 51.4055 158.223 51.8435 157.97L78.7042 142.46C78.934 142.31 79.1253 142.108 79.2627 141.87C79.4 141.632 79.4796 141.366 79.4949 141.091V139.966L51.0527 156.392Z" fill="#4F46E5"/>
<path d="M64.0476 136.033L66.7848 135.89C67.1193 135.872 67.2105 136.06 66.9885 136.316L63.8438 139.892C63.6218 140.145 63.4424 140.075 63.4424 139.74V136.675C63.4436 136.511 63.5066 136.354 63.6189 136.235C63.7312 136.116 63.8843 136.044 64.0476 136.033Z" fill="#4F46E5"/>
<path d="M63.3423 141.854C63.0143 141.858 62.691 141.775 62.4056 141.613C61.7304 141.221 61.3594 140.397 61.3594 139.32C61.3594 137.125 62.9074 134.454 64.8112 133.344C65.751 132.8 66.636 132.718 67.3173 133.107C67.9985 133.496 68.3665 134.324 68.3665 135.397C68.3665 137.596 66.8155 140.263 64.9146 141.373C64.4415 141.668 63.8994 141.834 63.3423 141.854ZM66.3836 133.074C65.8638 133.094 65.3584 133.25 64.9177 133.527C63.0716 134.591 61.5723 137.192 61.5723 139.32C61.5723 140.33 61.9068 141.081 62.5151 141.431C63.1233 141.781 63.9384 141.699 64.8112 141.194C66.6573 140.126 68.1567 137.544 68.1567 135.397C68.1567 134.388 67.8221 133.639 67.2139 133.287C66.9594 133.144 66.6721 133.071 66.3806 133.074H66.3836Z" fill="#4F46E5"/>
<path d="M31.2833 38.5548L3.54517 54.5663C3.38649 54.6708 3.25452 54.8111 3.15984 54.9758C3.06517 55.1406 3.01042 55.3252 3 55.5149V100.606C3 100.96 3.24533 101.102 3.54517 100.922L31.2833 84.9102C31.442 84.8057 31.5739 84.6655 31.6686 84.5007C31.7633 84.336 31.818 84.1514 31.8284 83.9616V38.871C31.8284 38.5221 31.5831 38.3967 31.2833 38.5548Z" fill="#2C2C2C"/>
<path d="M34.1882 37.6717L33.2287 37.1266C33.059 37.0433 32.8725 37 32.6835 37C32.4945 37 32.308 37.0433 32.1383 37.1266L4.39478 53.1163C4.23508 53.221 4.10243 53.362 4.00768 53.5279C3.91293 53.6937 3.85876 53.8795 3.84961 54.0703V99.1555C3.85876 99.3463 3.91293 99.5322 4.00768 99.698C4.10243 99.8638 4.23508 100.005 4.39478 100.11L5.35427 100.655C5.52394 100.738 5.71043 100.781 5.89944 100.781C6.08844 100.781 6.27493 100.738 6.4446 100.655L34.1773 84.6378C34.3359 84.5332 34.4679 84.393 34.5626 84.2283C34.6573 84.0635 34.712 83.8789 34.7224 83.6892V38.6203C34.7145 38.4313 34.662 38.2468 34.5691 38.0819C34.4763 37.917 34.3457 37.7765 34.1882 37.6717Z" fill="white"/>
<path d="M18.6024 61.9644L4.00827 53.5361C3.90645 53.7002 3.85001 53.8883 3.84473 54.0813V99.1665C3.85388 99.3573 3.90805 99.5432 4.0028 99.709C4.09755 99.8748 4.2302 100.016 4.38989 100.121L5.34939 100.666C5.51906 100.749 5.70555 100.792 5.89455 100.792C6.08355 100.792 6.27005 100.749 6.43972 100.666L18.6297 90.0732C18.706 79.4915 18.7769 62.0625 18.6024 61.9644Z" fill="#EAEAEA"/>
<path d="M34.1887 38.3053L6.45606 54.3168C6.29636 54.4216 6.16371 54.5626 6.06896 54.7284C5.97421 54.8942 5.92004 55.0801 5.91089 55.2709V100.362C5.91089 100.71 6.15621 100.852 6.45606 100.678L34.1887 84.6608C34.3474 84.5562 34.4794 84.416 34.574 84.2513C34.6687 84.0865 34.7235 83.9019 34.7339 83.7122V38.6215C34.7393 38.2726 34.494 38.1309 34.1887 38.3053Z" fill="white"/>
<path d="M7.48698 54.9104L33.1698 40.0874C33.4751 39.9129 33.715 40.0546 33.715 40.4035V82.5558C33.7046 82.7462 33.6498 82.9316 33.5552 83.0972C33.4606 83.2629 33.3286 83.4041 33.1698 83.5098L7.49243 98.3329C7.19259 98.5073 6.94727 98.3656 6.94727 98.0112V55.8426C6.95955 55.6562 7.01464 55.4752 7.10824 55.3135C7.20184 55.1518 7.33144 55.0139 7.48698 54.9104Z" fill="white"/>
<path d="M6.93652 55.8428V63.3389C7.77608 63.6441 8.85551 63.5024 10.0222 62.8264C12.748 61.2672 14.9287 57.4729 14.9287 54.3545C14.9287 52.9098 14.4598 51.8686 13.6911 51.3125L7.49805 54.8888C7.33592 54.9923 7.20054 55.1327 7.10296 55.2985C7.00538 55.4643 6.94836 55.6508 6.93652 55.8428Z" fill="#4F46E5"/>
<path d="M29.054 54.1294L22.3811 70.0918L18.0198 66.5483C17.942 66.482 17.8518 66.4321 17.7544 66.4014C17.657 66.3707 17.5544 66.3598 17.4527 66.3695C17.351 66.3791 17.2523 66.4091 17.1624 66.4576C17.0726 66.5061 16.9933 66.5721 16.9294 66.6518C16.8886 66.7041 16.8539 66.7608 16.8259 66.8208L6.93652 88.5184V97.9934C6.93652 98.3478 7.18185 98.4895 7.48169 98.3151L11.3633 96.0744L33.17 83.492C33.3288 83.3863 33.4607 83.2451 33.5554 83.0794C33.65 82.9138 33.7047 82.7284 33.7151 82.538V58.796L30.3842 53.9931C30.3287 53.9103 30.2575 53.8393 30.1746 53.7841C30.0917 53.7289 29.9987 53.6906 29.901 53.6714C29.8033 53.6521 29.7027 53.6524 29.6051 53.672C29.5075 53.6917 29.4147 53.7304 29.332 53.7859C29.2068 53.8697 29.1099 53.9895 29.054 54.1294Z" fill="#4F46E5"/>
<path d="M137.049 9.00034L112.544 23.1134C112.244 23.3063 111.994 23.5676 111.815 23.8758C111.636 24.184 111.533 24.5302 111.514 24.8861V54.3355C111.533 54.6912 111.637 55.0372 111.817 55.3444C111.998 55.6517 112.249 55.9115 112.55 56.102L116.22 58.1618C116.539 58.3236 116.892 58.4079 117.25 58.4079C117.608 58.4079 117.961 58.3236 118.28 58.1618L142.792 44.0551C143.09 43.8593 143.338 43.5964 143.516 43.2874C143.693 42.9784 143.796 42.632 143.816 42.2761V12.8204C143.797 12.4652 143.694 12.1197 143.515 11.8125C143.336 11.5052 143.086 11.2452 142.786 11.0539L139.122 8.99409C138.8 8.83316 138.445 8.7499 138.085 8.75099C137.725 8.75207 137.37 8.83747 137.049 9.00034Z" fill="#4F46E5"/>
<path d="M117.275 57.5633V28.1138C117.294 27.7577 117.396 27.4112 117.574 27.1021C117.752 26.7931 118 26.5302 118.298 26.3348L142.81 12.2281C143.372 11.8972 143.834 12.1656 143.834 12.8523V42.2955C143.815 42.6514 143.712 42.9978 143.534 43.3068C143.356 43.6157 143.108 43.8787 142.81 44.0744L118.298 58.1812C117.712 58.4808 117.275 58.2124 117.275 57.5633Z" fill="#4F46E5"/>
<path opacity="0.2" d="M118.28 58.1497C117.959 58.3068 117.607 58.3885 117.25 58.3885C116.893 58.3885 116.541 58.3068 116.22 58.1497L112.55 56.0899C112.249 55.8989 111.998 55.6391 111.818 55.3319C111.638 55.0247 111.534 54.679 111.514 54.3234V24.8864C111.529 24.5138 111.643 24.1519 111.844 23.8378L117.556 27.1023C117.377 27.4095 117.28 27.7578 117.275 28.1135V57.5567C117.275 58.1559 117.674 58.5055 118.28 58.1497Z" fill="#141414"/>
<path opacity="0.4" d="M143.803 12.6336C143.722 12.1155 143.297 11.9345 142.785 12.2279L118.28 26.3347C117.978 26.5264 117.729 26.7903 117.556 27.1024L111.838 23.8379C112.008 23.5388 112.25 23.2875 112.543 23.1076L137.055 9.0008C137.374 8.84241 137.726 8.75999 138.082 8.75999C138.438 8.75999 138.79 8.84241 139.109 9.0008L142.779 11.0606C143.052 11.2351 143.284 11.4656 143.46 11.7368C143.637 12.008 143.754 12.3138 143.803 12.6336Z" fill="white"/>
<path d="M111.513 34.9795L103.261 43.3749C103.166 43.4714 103.094 43.5878 103.05 43.7157C103.006 43.8436 102.991 43.9797 103.006 44.1142C103.021 44.2487 103.065 44.3781 103.136 44.4932C103.208 44.6082 103.304 44.706 103.417 44.7793C103.586 44.8917 109.129 48.0688 109.129 48.0688L117.274 38.2877L111.513 34.9795Z" fill="#4F46E5"/>
<path opacity="0.1" d="M111.513 34.9795L103.261 43.3749C103.166 43.4714 103.094 43.5878 103.05 43.7157C103.006 43.8436 102.991 43.9797 103.006 44.1142C103.021 44.2487 103.065 44.3781 103.136 44.4932C103.208 44.6082 103.304 44.706 103.417 44.7793C103.586 44.8917 109.129 48.0688 109.129 48.0688L117.274 38.2877L111.513 34.9795Z" fill="#141414"/>
<path d="M117.274 38.2881L109.016 46.6897C108.885 46.8261 108.799 47.0001 108.771 47.1875C108.743 47.3749 108.774 47.5664 108.86 47.7353C108.945 47.9042 109.082 48.0422 109.25 48.13C109.418 48.2178 109.609 48.2511 109.796 48.2252L117.287 47.1454C118.055 47.1392 118.055 38.2881 117.274 38.2881Z" fill="#4F46E5"/>
<path d="M123.079 30.9283L133.503 24.9048C134.327 24.4242 135.001 24.8112 135.001 25.7662V38.4935C134.972 39.0124 134.821 39.5171 134.561 39.967C134.3 40.4169 133.938 40.7995 133.503 41.0839L123.079 47.1074C122.249 47.5818 121.581 47.201 121.581 46.246V33.5187C121.61 32.9996 121.76 32.4945 122.02 32.0444C122.281 31.5943 122.643 31.212 123.079 30.9283Z" fill="white"/>
<path d="M137.43 28.3818L140.32 25.3607C140.669 24.9862 140.944 25.1048 140.944 25.6167V34.2056C140.939 34.4577 140.843 34.6994 140.673 34.8856C140.503 35.0717 140.271 35.1895 140.02 35.2168L137.704 35.4228C137.586 35.4352 137.467 35.4223 137.354 35.3851C137.242 35.3479 137.138 35.2871 137.051 35.2068C136.963 35.1265 136.894 35.0285 136.847 34.9194C136.801 34.8103 136.778 34.6925 136.78 34.5738V29.9798C136.815 29.3902 137.043 28.8286 137.43 28.3818Z" fill="white"/>
</svg>
