<svg width="342" height="285" viewBox="0 0 342 285" fill="none" xmlns="http://www.w3.org/2000/svg">
<path d="M53.3484 259.07C119.378 293.566 226.438 293.566 292.475 259.07C358.512 224.573 358.504 168.648 292.475 134.151C226.445 99.6548 119.378 99.647 53.3405 134.151C-12.6969 168.656 -12.689 224.573 53.3484 259.07Z" fill="#F5F5F5"/>
<path d="M23.7542 67.1285L19.4432 64.6537C17.3862 63.2745 14.5252 63.3297 11.3648 65.1581C5.0598 68.7835 0 77.981 0 85.7047V87.4622C0 95.1859 10.3876 103.572 10.3876 103.572L14.6277 105.975C14.6277 105.975 12.082 103.067 12.3736 102.468C15.1873 96.7622 22.7139 80.637 22.7139 74.332V72.5744C22.7299 71.3024 22.5681 70.0344 22.2332 68.8072L22.7139 69.083L23.7542 67.1285ZM11.357 84.8377C8.20443 86.6504 5.67454 85.1766 5.67454 81.5591C7.36114 81.2912 11.6092 74.0404 11.357 71.7154C14.5095 69.9027 17.0315 71.3765 17.0394 74.994C16.9326 76.9659 16.3624 78.8849 15.3751 80.5953C14.3878 82.3056 13.0112 83.7591 11.357 84.8377Z" fill="#4F46E5"/>
<g opacity="0.2">
<path d="M23.7542 67.128L19.4432 64.6533C17.3862 63.274 14.5252 63.3292 11.3648 65.1577C5.0598 68.7831 0 77.9805 0 85.7042V87.4617C0 95.1854 10.3876 103.571 10.3876 103.571L14.6277 105.975C14.6277 105.975 12.082 103.067 12.3736 102.468C15.1873 96.7617 22.7139 80.6365 22.7139 74.3315V72.574C22.7299 71.302 22.5681 70.0339 22.2332 68.8067L22.7139 69.0825L23.7542 67.128ZM11.357 84.8373C8.20443 86.65 5.67454 85.1762 5.67454 81.5586C7.36114 81.2907 11.6092 74.0399 11.357 71.7149C14.5095 69.9022 17.0315 71.376 17.0394 74.9935C16.9326 76.9655 16.3624 78.8845 15.3751 80.5948C14.3878 82.3051 13.0112 83.7586 11.357 84.8373Z" fill="#141414"/>
</g>
<path d="M23.7541 67.1285C23.707 67.095 23.6569 67.066 23.6044 67.0418C21.5789 65.9069 18.8756 66.0646 15.8965 67.7827C11.4041 70.3835 7.51865 75.8295 5.65078 81.5592C4.92846 83.7391 4.54568 86.0172 4.51587 88.3135V90.0946C4.51587 96.045 11.2544 102.949 14.3517 105.81C14.4188 105.87 14.4899 105.925 14.5645 105.975C14.7467 106.087 14.9501 106.159 15.1618 106.187C15.3736 106.215 15.5888 106.199 15.7937 106.139C15.9987 106.079 16.1887 105.976 16.3517 105.838C16.5146 105.7 16.6468 105.529 16.7398 105.337C19.4194 99.8202 27.214 83.364 27.214 76.9644V75.2069C27.2613 71.2347 25.9136 68.4289 23.7541 67.1285ZM10.3165 85.3186C10.2511 84.9439 10.2194 84.564 10.2219 84.1837C10.326 82.2109 10.8942 80.2906 11.8802 78.5787C12.8662 76.8669 14.2422 75.4119 15.8965 74.332C16.2269 74.1417 16.5722 73.9783 16.9289 73.8434C19.577 72.8819 21.5789 74.403 21.5789 77.6107C21.4727 79.5817 20.9028 81.4998 19.9153 83.209C18.9279 84.9181 17.551 86.37 15.8965 87.4465C13.1144 89.0701 10.7973 88.0928 10.3165 85.3186Z" fill="#4F46E5"/>
<path d="M21.5788 77.6185C21.4726 79.5895 20.9027 81.5077 19.9152 83.2168C18.9278 84.926 17.5509 86.3779 15.8964 87.4544C13.1143 89.0306 10.7972 88.0928 10.3164 85.3186C10.6776 85.1914 11.0259 85.0305 11.3567 84.8378C13.0099 83.7587 14.3853 82.305 15.3713 80.5946C16.3573 78.8842 16.926 76.9654 17.0313 74.994C17.0349 74.6107 17.0006 74.2279 16.9288 73.8513C19.5769 72.8897 21.5788 74.4108 21.5788 77.6185Z" fill="#4F46E5"/>
<g opacity="0.2">
<path d="M21.579 77.619C21.4729 79.59 20.9029 81.5081 19.9155 83.2173C18.9281 84.9264 17.5511 86.3783 15.8966 87.4548C13.1145 89.0311 10.7974 88.0932 10.3167 85.319C10.6778 85.1919 11.0261 85.0309 11.357 84.8382C13.0102 83.7592 14.3856 82.3054 15.3715 80.595C16.3575 78.8847 16.9262 76.9659 17.0315 74.9945C17.0351 74.6111 17.0008 74.2283 16.9291 73.8517C19.5772 72.8902 21.579 74.4113 21.579 77.619Z" fill="#141414"/>
</g>
<path d="M96.7433 214.017C96.7433 214.017 99.5885 195.89 93.2677 180.301C86.9468 164.712 78.4272 163.75 74.0136 165.965C69.6001 168.18 72.4374 176.825 76.378 182.634C81.627 190.255 90.2964 206.664 90.0127 221.402L96.7433 214.017Z" fill="#4F46E5"/>
<path opacity="0.2" d="M96.7433 214.017C96.7433 214.017 99.5885 195.89 93.2677 180.301C86.9468 164.712 78.4272 163.75 74.0136 165.965C69.6001 168.18 72.4374 176.825 76.378 182.634C81.627 190.255 90.2964 206.664 90.0127 221.402L96.7433 214.017Z" fill="#141414"/>
<path d="M93.906 215.168C93.8353 215.166 93.7657 215.15 93.7013 215.12C93.6369 215.091 93.5792 215.049 93.5314 214.996C93.4836 214.944 93.4468 214.883 93.4231 214.816C93.3995 214.75 93.3895 214.679 93.3937 214.608C94.4341 189.79 82.0368 171.261 76.6854 167.651C76.6269 167.612 76.5768 167.562 76.5378 167.503C76.4988 167.444 76.4718 167.378 76.4582 167.309C76.4447 167.24 76.4449 167.169 76.4589 167.1C76.4728 167.031 76.5003 166.965 76.5396 166.907C76.5789 166.848 76.6294 166.798 76.6881 166.759C76.7468 166.72 76.8126 166.693 76.8818 166.679C76.9509 166.666 77.0221 166.666 77.0912 166.68C77.1602 166.694 77.2259 166.721 77.2844 166.761C83.5894 170.969 95.5059 189.916 94.4577 214.655C94.4557 214.726 94.4398 214.794 94.4108 214.858C94.3819 214.922 94.3406 214.98 94.2892 215.027C94.2379 215.075 94.1775 215.112 94.1118 215.136C94.046 215.16 93.976 215.171 93.906 215.168Z" fill="white"/>
<path d="M95.6242 235.541C94.5444 232.83 91.7544 229.803 84.5903 226.572C77.4262 223.341 72.0354 219.03 71.0424 215.909C70.7436 215.046 70.7045 214.116 70.9301 213.232C71.1557 212.347 71.6359 211.549 72.3113 210.935C72.3113 210.935 65.557 210.147 64.7058 206.01C63.6418 200.792 69.5449 200.453 69.5449 200.453C69.5449 200.453 61.7976 189.546 59.7406 184.691C57.6836 179.836 60.0559 179.544 65.0526 181.396C70.0493 183.248 79.57 192.572 81.0438 195.417C81.0438 195.417 83.6209 192.265 86.3952 194.337C89.1694 196.41 89.3034 202.613 87.6641 204.851C88.7696 204.645 89.911 204.764 90.9503 205.194C91.9896 205.623 92.8821 206.344 93.5199 207.271C96.3414 210.967 97.2714 220.212 97.2714 220.212L95.6242 235.541Z" fill="#4F46E5"/>
<path d="M96.1285 233.019C96.0088 233.018 95.8929 232.977 95.7989 232.903C95.7048 232.829 95.6379 232.725 95.6084 232.609C91.7781 216.65 73.5959 191.177 62.302 183.075C62.2445 183.035 62.1957 182.983 62.1583 182.923C62.1209 182.863 62.0956 182.797 62.0839 182.727C62.0722 182.658 62.0743 182.586 62.0901 182.518C62.1058 182.449 62.135 182.384 62.1759 182.327C62.2168 182.269 62.2686 182.22 62.3283 182.183C62.3881 182.146 62.4546 182.12 62.5241 182.109C62.5937 182.097 62.6648 182.099 62.7335 182.115C62.8022 182.131 62.8672 182.16 62.9246 182.201C74.3604 190.405 92.7711 216.201 96.6566 232.357C96.6874 232.496 96.6626 232.642 96.5875 232.762C96.5124 232.883 96.3929 232.97 96.2546 233.003L96.1285 233.019Z" fill="white"/>
<path d="M188.177 7.12245L106.24 53.5286C105.178 54.2088 104.294 55.1249 103.66 56.2027C103.026 57.2806 102.66 58.4898 102.591 59.7326V237.738C102.591 240.022 104.226 240.948 106.24 239.806L188.177 193.4C189.239 192.72 190.123 191.804 190.757 190.726C191.391 189.648 191.757 188.439 191.826 187.196V9.19046C191.826 6.90738 190.191 5.98091 188.177 7.12245Z" fill="#191919"/>
<path d="M106.24 53.5283L188.177 7.12217C189.98 6.10471 191.472 6.74166 191.767 8.52014C191.601 7.40119 191.195 6.32952 190.576 5.37568C189.957 4.42184 189.14 3.60746 188.177 2.98615L185.202 1.33175C184.071 0.768589 182.821 0.475098 181.552 0.475098C180.284 0.475098 179.034 0.768589 177.903 1.33175L95.9659 47.713C94.888 48.373 94.0002 49.2928 93.387 50.3849L103.661 56.1753C104.277 55.0923 105.165 54.1813 106.24 53.5283Z" fill="#2C2C2C"/>
<path d="M92.3167 231.915C92.3845 233.158 92.7504 234.367 93.3845 235.445C94.0187 236.523 94.9031 237.439 95.966 238.119L98.9411 239.773C99.9695 240.282 101.096 240.571 102.247 240.621C103.398 240.671 104.546 240.48 105.616 240.062C103.93 240.699 102.59 239.748 102.59 237.705V59.7074C102.633 58.4593 103.001 57.243 103.661 56.1752L93.387 50.3848C92.7292 51.4533 92.3607 52.6692 92.3167 53.9169V231.915Z" fill="#252525"/>
<path d="M108.204 75.6968L186.214 31.5159C187.419 30.8293 188.405 31.3835 188.405 32.7567V167.516C188.362 168.262 188.141 168.987 187.761 169.633C187.38 170.28 186.85 170.83 186.214 171.239L108.204 215.411C106.999 216.098 106.013 215.544 106.013 214.171V79.4192C106.053 78.6731 106.273 77.947 106.654 77.3001C107.034 76.6532 107.566 76.1038 108.204 75.6968Z" fill="white"/>
<path d="M146.382 37.2325C146.01 37.4727 145.699 37.7955 145.477 38.1748C145.254 38.5541 145.126 38.9793 145.101 39.4164C145.101 40.2436 145.674 40.5496 146.382 40.1443C146.756 39.9051 147.067 39.5826 147.29 39.2031C147.512 38.8236 147.64 38.3978 147.663 37.9605C147.663 37.1581 147.09 36.8355 146.382 37.2325Z" fill="#252525"/>
<path d="M134.254 50.0374C133.514 50.5205 132.9 51.1673 132.461 51.9259C132.022 52.6845 131.77 53.5336 131.726 54.405C131.726 56.0098 132.872 56.6633 134.254 55.8609C135.003 55.3829 135.626 54.7382 136.073 53.9792C136.519 53.2203 136.777 52.3685 136.825 51.4933C136.825 49.8885 135.67 49.235 134.254 50.0374Z" fill="#252525"/>
<path d="M140.533 49.4915C140.533 50.5668 141.376 50.9722 142.362 50.4014L159.218 40.8307C159.738 40.5092 160.174 40.0721 160.49 39.5548C160.806 39.0375 160.994 38.4544 161.038 37.8527C161.038 36.7856 160.196 36.3803 159.218 36.9511L142.362 46.5218C141.841 46.8411 141.404 47.2763 141.086 47.7922C140.768 48.3081 140.579 48.8903 140.533 49.4915Z" fill="#252525"/>
<path d="M97.997 81.0244C98.5965 81.4053 99.0954 81.9202 99.4529 82.527C99.8104 83.1338 100.016 83.8152 100.053 84.5152C100.053 85.7973 99.1348 86.3185 97.997 85.6815C97.4003 85.2964 96.9041 84.7792 96.5483 84.1714C96.1926 83.5636 95.9873 82.8823 95.949 82.1824C95.9658 80.9003 96.8676 80.3874 97.997 81.0244Z" fill="#191919"/>
<path d="M97.997 96.55C98.5951 96.9324 99.0929 97.4477 99.4502 98.0542C99.8075 98.6607 100.014 99.3413 100.053 100.041C100.053 101.331 99.1348 101.852 97.997 101.207C97.4095 100.826 96.9203 100.316 96.5679 99.717C96.2154 99.1185 96.0093 98.4478 95.9658 97.7578C95.9658 96.4342 96.8676 95.9131 97.997 96.55Z" fill="#191919"/>
<path d="M97.3645 81.3304C97.9626 81.7127 98.4605 82.2281 98.8178 82.8346C99.1751 83.4411 99.3817 84.1217 99.421 84.8212C99.421 86.1116 98.5023 86.6328 97.3645 85.9875C96.7674 85.6042 96.2702 85.0886 95.913 84.4823C95.5559 83.8761 95.3487 83.1959 95.3081 82.4967C95.3081 81.2146 96.2352 80.6934 97.3645 81.3304Z" fill="#2C2C2C"/>
<path d="M97.3645 96.8657C97.9626 97.2481 98.4605 97.7634 98.8178 98.3699C99.1751 98.9764 99.3817 99.657 99.421 100.357C99.421 101.647 98.5023 102.168 97.3645 101.523C96.7674 101.14 96.2702 100.624 95.913 100.018C95.5559 99.4114 95.3487 98.7313 95.3081 98.0321C95.3081 96.7416 96.2352 96.2205 97.3645 96.8657Z" fill="#2C2C2C"/>
<path d="M147.209 199.274C145.736 200.218 144.51 201.49 143.632 202.986C142.753 204.482 142.246 206.16 142.152 207.885C142.152 211.061 144.419 212.343 147.209 210.763C148.682 209.817 149.908 208.544 150.786 207.047C151.665 205.549 152.172 203.87 152.266 202.144C152.274 198.968 150.007 197.685 147.209 199.274Z" fill="#252525"/>
<path d="M124.376 213.492C123.66 213.492 123.584 212.665 123.584 212.367V77.6159C123.628 76.943 123.83 76.2892 124.174 75.7053C124.517 75.1214 124.993 74.6231 125.565 74.2492L203.575 30.0683C203.807 29.9316 204.071 29.8521 204.341 29.8367C205.058 29.8367 205.134 30.6142 205.134 30.9534V165.713C205.09 166.385 204.889 167.038 204.545 167.621C204.202 168.203 203.725 168.7 203.153 169.072L125.143 213.252C124.913 213.396 124.649 213.479 124.376 213.492Z" fill="white"/>
<path d="M204.342 30.252C204.662 30.252 204.713 30.6904 204.713 30.9552V165.715C204.67 166.315 204.489 166.897 204.182 167.417C203.875 167.938 203.451 168.382 202.943 168.718L124.933 212.899C124.765 213.002 124.574 213.065 124.377 213.08C124.056 213.08 124.006 212.634 124.006 212.369V77.6177C124.048 77.0179 124.23 76.4356 124.537 75.9152C124.843 75.3948 125.267 74.95 125.776 74.6149L203.786 30.434C203.952 30.3267 204.143 30.264 204.342 30.252ZM204.342 29.4248C203.996 29.4362 203.659 29.536 203.364 29.7143L125.354 73.8953C124.716 74.3023 124.185 74.8517 123.804 75.4986C123.423 76.1455 123.204 76.8716 123.163 77.6177V212.369C123.163 213.345 123.66 213.908 124.377 213.908C124.723 213.893 125.06 213.79 125.354 213.61L203.364 169.437C204.002 169.03 204.533 168.48 204.914 167.833C205.294 167.187 205.514 166.461 205.555 165.715V30.9552C205.555 29.9873 205.058 29.4248 204.342 29.4248Z" fill="#4F46E5"/>
<path d="M205.53 30.9546C205.53 29.5814 204.552 29.0272 203.339 29.7138L125.329 73.8947C124.691 74.3017 124.159 74.8511 123.779 75.498C123.398 76.1449 123.178 76.871 123.138 77.6171V88.6603L205.53 41.9977V30.9546Z" fill="#4F46E5"/>
<path opacity="0.1" d="M205.53 30.9546C205.53 29.5814 204.552 29.0272 203.339 29.7138L125.329 73.8947C124.691 74.3017 124.159 74.8511 123.779 75.498C123.398 76.1449 123.178 76.871 123.138 77.6171V88.6603L205.53 41.9977V30.9546Z" fill="#141414"/>
<path d="M131.76 76.4414C131.622 76.3899 131.472 76.3728 131.325 76.3916C131.178 76.4103 131.038 76.4644 130.917 76.5489C130.484 76.8312 130.123 77.2081 129.863 77.6501C129.603 78.0921 129.45 78.5872 129.417 79.0967C129.396 79.2433 129.415 79.3928 129.473 79.5296C129.531 79.6663 129.625 79.7854 129.746 79.8743C129.884 79.9301 130.035 79.9488 130.183 79.9284C130.331 79.9081 130.471 79.8494 130.589 79.7584C131.019 79.4761 131.378 79.1001 131.637 78.6597C131.895 78.2193 132.047 77.7263 132.081 77.2189C132.103 77.0731 132.085 76.9241 132.028 76.7874C131.972 76.6506 131.879 76.5312 131.76 76.4414Z" fill="white"/>
<path d="M133.539 73.6213L133.353 73.7288V73.3566C133.353 72.8354 132.983 72.6203 132.511 72.885L128.971 74.8869C128.728 75.0416 128.525 75.2501 128.378 75.4958C128.232 75.7414 128.146 76.0174 128.128 76.3014V76.6819L127.934 76.7894C127.611 76.9958 127.341 77.2741 127.148 77.6018C126.955 77.9295 126.843 78.2974 126.822 78.6755V82.0422C126.822 82.737 127.319 83.0266 127.934 82.6791L133.522 79.5109C133.846 79.3033 134.116 79.0236 134.309 78.6944C134.502 78.3653 134.614 77.996 134.635 77.6166V74.2334C134.651 73.5551 134.154 73.2738 133.539 73.6213ZM130.909 80.3051C130.637 80.4683 130.326 80.5595 130.008 80.5698C129.801 80.5717 129.598 80.5203 129.418 80.4209C129.2 80.2765 129.025 80.0779 128.911 79.8453C128.797 79.6128 128.748 79.3546 128.769 79.0973C128.798 78.4775 128.979 77.8736 129.295 77.3367C129.612 76.7997 130.056 76.3453 130.589 76.0119C130.803 75.8604 131.055 75.7695 131.318 75.7491C131.582 75.7286 131.845 75.7795 132.081 75.8961C132.299 76.0396 132.474 76.2383 132.587 76.4713C132.7 76.7042 132.746 76.9628 132.721 77.2196C132.692 77.8384 132.512 78.4412 132.196 78.9779C131.881 79.5146 131.44 79.9696 130.909 80.3051ZM133.438 75.8133C133.151 75.9705 132.924 75.8133 132.924 75.5156C132.932 75.3398 132.983 75.1687 133.073 75.0162C133.162 74.8637 133.287 74.7344 133.438 74.6387C133.724 74.4733 133.96 74.6387 133.96 74.9282C133.954 75.1028 133.906 75.2735 133.822 75.427C133.737 75.5805 133.617 75.7128 133.471 75.8133H133.438Z" fill="white"/>
<path d="M201.046 34.3531L195.594 37.4386C195.277 37.6407 195.014 37.913 194.825 38.2335C194.637 38.554 194.527 38.9136 194.506 39.2833V42.5921C194.506 43.2621 194.995 43.5434 195.594 43.2042L198.838 41.3678L200.111 42.6169C200.141 42.6441 200.178 42.6622 200.218 42.6691C200.258 42.6759 200.3 42.6711 200.337 42.6554C200.375 42.6396 200.407 42.6135 200.429 42.5803C200.452 42.547 200.464 42.508 200.465 42.468V40.4413L201.046 40.1105C201.367 39.9112 201.635 39.6401 201.829 39.3194C202.022 38.9988 202.135 38.6377 202.159 38.2658V34.957C202.159 34.287 201.645 34.014 201.046 34.3531Z" fill="white"/>
<path d="M133.664 86.6912C136.513 85.1029 138.822 86.3934 138.822 89.5864C138.72 91.3327 138.2 93.0309 137.304 94.5429C136.407 96.0549 135.161 97.3381 133.664 98.2886C130.807 99.943 128.498 98.6112 128.498 95.3934C128.594 93.6445 129.112 91.9432 130.011 90.43C130.909 88.9168 132.161 87.6352 133.664 86.6912Z" fill="#4F46E5"/>
<path d="M143.929 82.7946L161.047 73.0998C162.058 72.529 162.876 72.9343 162.876 74.0014C162.831 74.604 162.642 75.1878 162.324 75.7053C162.007 76.2228 161.569 76.6593 161.047 76.9794L143.929 86.6742C142.926 87.2449 142.109 86.8396 142.109 85.7725C142.153 85.1708 142.341 84.5877 142.657 84.0704C142.973 83.5531 143.409 83.1161 143.929 82.7946Z" fill="#4F46E5"/>
<g opacity="0.7">
<path d="M143.93 82.7942L161.047 73.0994C162.058 72.5286 162.876 72.9339 162.876 74.001C162.832 74.6037 162.643 75.1875 162.325 75.7049C162.007 76.2224 161.569 76.6589 161.047 76.979L143.93 86.6738C142.927 87.2446 142.109 86.8392 142.109 85.7721C142.154 85.1704 142.341 84.5874 142.658 84.0701C142.974 83.5527 143.41 83.1157 143.93 82.7942Z" fill="white"/>
</g>
<path d="M143.356 89.6683L155.096 83.0507C155.788 82.6619 156.344 82.9348 156.344 83.6711C156.314 84.0838 156.185 84.4837 155.968 84.8386C155.752 85.1936 155.453 85.4935 155.096 85.7142L143.356 92.3319C142.665 92.7207 142.109 92.4394 142.109 91.7032C142.14 91.2918 142.269 90.8932 142.485 90.5397C142.702 90.1862 143 89.8877 143.356 89.6683Z" fill="#4F46E5"/>
<g opacity="0.7">
<path d="M143.357 89.6686L155.097 83.051C155.788 82.6622 156.344 82.9352 156.344 83.6714C156.314 84.0841 156.186 84.484 155.969 84.839C155.752 85.1939 155.454 85.4938 155.097 85.7146L143.357 92.3322C142.666 92.721 142.109 92.4397 142.109 91.7035C142.14 91.2921 142.269 90.8935 142.486 90.5401C142.702 90.1866 143.001 89.888 143.357 89.6686Z" fill="white"/>
</g>
<path d="M133.664 173.664C136.513 172.075 138.822 173.374 138.822 176.559C138.72 178.305 138.2 180.003 137.304 181.515C136.407 183.027 135.161 184.311 133.664 185.261C130.807 186.915 128.498 185.584 128.498 182.366C128.596 180.617 129.115 178.917 130.013 177.404C130.912 175.891 132.163 174.609 133.664 173.664Z" fill="#4F46E5"/>
<path d="M143.929 169.776L161.047 160.073C162.058 159.502 162.876 159.907 162.876 160.974C162.831 161.577 162.642 162.161 162.324 162.678C162.007 163.196 161.569 163.632 161.047 163.952L143.929 173.655C142.926 174.226 142.109 173.821 142.109 172.746C142.154 172.145 142.343 171.564 142.659 171.048C142.975 170.532 143.41 170.097 143.929 169.776Z" fill="#4F46E5"/>
<g opacity="0.7">
<path d="M143.93 169.776L161.047 160.073C162.058 159.502 162.876 159.907 162.876 160.974C162.832 161.577 162.643 162.161 162.325 162.678C162.007 163.196 161.569 163.632 161.047 163.952L143.93 173.656C142.927 174.226 142.109 173.821 142.109 172.746C142.155 172.145 142.343 171.564 142.66 171.048C142.976 170.532 143.411 170.097 143.93 169.776Z" fill="white"/>
</g>
<path d="M143.356 176.64L155.096 170.023C155.788 169.634 156.344 169.907 156.344 170.643C156.314 171.056 156.185 171.456 155.968 171.811C155.752 172.166 155.453 172.466 155.096 172.686L143.356 179.304C142.665 179.693 142.109 179.411 142.109 178.684C142.138 178.271 142.267 177.87 142.483 177.515C142.7 177.16 142.999 176.861 143.356 176.64Z" fill="#4F46E5"/>
<g opacity="0.7">
<path d="M143.357 176.64L155.097 170.023C155.788 169.634 156.344 169.907 156.344 170.643C156.314 171.056 156.186 171.456 155.969 171.811C155.752 172.166 155.454 172.466 155.097 172.686L143.357 179.304C142.666 179.693 142.109 179.412 142.109 178.684C142.139 178.271 142.267 177.871 142.484 177.516C142.701 177.16 143 176.861 143.357 176.64Z" fill="white"/>
</g>
<path d="M132.063 103.102L196.883 66.3742C197.895 65.8034 198.712 66.2667 198.712 67.4082V130.946C198.678 131.569 198.494 132.175 198.176 132.715C197.859 133.256 197.416 133.715 196.883 134.056L132.063 170.999C131.052 171.57 130.243 171.106 130.243 169.965V106.204C130.276 105.583 130.458 104.978 130.774 104.439C131.09 103.9 131.532 103.442 132.063 103.102Z" fill="#F5F5F5"/>
<path d="M155.855 117.652C155.689 117.414 155.461 117.225 155.194 117.106C154.927 116.986 154.631 116.94 154.34 116.974C154.048 117.007 153.771 117.118 153.539 117.294C153.307 117.471 153.129 117.706 153.023 117.975L130.267 160.394V169.965C130.267 171.106 131.11 171.57 132.088 170.999L196.908 134.246C197.44 133.905 197.883 133.446 198.201 132.906C198.519 132.365 198.702 131.759 198.737 131.136V109.959L186.423 88.4935C185.741 87.2941 184.788 87.3685 184.291 88.6507L167.898 131.293L155.855 117.652Z" fill="#4F46E5"/>
<g opacity="0.3">
<path d="M155.855 117.653C155.69 117.415 155.461 117.226 155.194 117.106C154.927 116.986 154.632 116.941 154.34 116.974C154.048 117.007 153.772 117.118 153.54 117.295C153.307 117.471 153.129 117.707 153.023 117.975L130.268 160.394V169.965C130.268 171.107 131.111 171.57 132.088 170.999L196.908 134.246C197.441 133.906 197.884 133.446 198.201 132.906C198.519 132.365 198.703 131.759 198.737 131.136V109.96L186.424 88.4939C185.741 87.2944 184.789 87.3689 184.291 88.651L167.899 131.293L155.855 117.653Z" fill="white"/>
</g>
<path d="M137.078 120.293C142.792 117.075 147.436 109.233 147.436 102.781C147.436 99.4719 146.222 97.2053 144.292 96.1631L132.063 103.087C131.532 103.426 131.09 103.884 130.774 104.423C130.458 104.963 130.276 105.567 130.243 106.189V121.194C132.063 121.997 134.449 121.748 137.078 120.293Z" fill="#4F46E5"/>
<g opacity="0.6">
<path d="M137.078 120.293C142.792 117.075 147.436 109.233 147.436 102.781C147.436 99.4723 146.222 97.2058 144.292 96.1635L132.063 103.087C131.532 103.427 131.09 103.885 130.774 104.424C130.457 104.963 130.275 105.568 130.243 106.189V121.195C132.063 121.997 134.448 121.749 137.078 120.293Z" fill="white"/>
</g>
<path d="M132.063 190.406L196.883 153.67C197.895 153.099 198.712 153.505 198.712 154.58C198.666 155.181 198.477 155.763 198.159 156.279C197.841 156.795 197.404 157.23 196.883 157.55L132.063 194.286C131.052 194.856 130.243 194.451 130.243 193.376C130.286 192.775 130.473 192.192 130.79 191.676C131.106 191.16 131.543 190.725 132.063 190.406Z" fill="#4F46E5"/>
<g opacity="0.6">
<path d="M132.063 190.406L196.883 153.67C197.894 153.099 198.712 153.504 198.712 154.58C198.666 155.181 198.477 155.763 198.159 156.279C197.841 156.795 197.404 157.23 196.883 157.549L132.063 194.286C131.052 194.856 130.243 194.451 130.243 193.376C130.286 192.775 130.473 192.192 130.789 191.676C131.106 191.16 131.542 190.725 132.063 190.406Z" fill="white"/>
</g>
<path d="M132.063 198.165L196.883 161.453C197.895 160.883 198.712 161.288 198.712 162.363C198.666 162.965 198.477 163.547 198.159 164.063C197.841 164.579 197.404 165.014 196.883 165.333L132.063 202.069C131.052 202.64 130.243 202.235 130.243 201.159C130.283 200.554 130.468 199.967 130.785 199.446C131.101 198.926 131.54 198.486 132.063 198.165Z" fill="#4F46E5"/>
<g opacity="0.6">
<path d="M132.063 198.165L196.883 161.453C197.894 160.883 198.712 161.288 198.712 162.363C198.666 162.965 198.477 163.547 198.159 164.063C197.841 164.579 197.404 165.014 196.883 165.333L132.063 202.069C131.052 202.64 130.243 202.235 130.243 201.159C130.282 200.554 130.468 199.967 130.785 199.446C131.101 198.926 131.539 198.486 132.063 198.165Z" fill="white"/>
</g>
<path d="M142.058 68.5174L188.302 42.3364C189.718 41.5092 190.831 42.1875 190.831 43.784C190.787 44.6509 190.535 45.4954 190.096 46.2486C189.656 47.0019 189.042 47.6426 188.302 48.1185L142.066 74.2251C140.65 75.0523 139.538 74.3905 139.538 72.8188C139.586 71.9584 139.839 71.1209 140.276 70.3739C140.714 69.6268 141.324 68.9909 142.058 68.5174Z" fill="white"/>
<path d="M218.865 261.945C231.21 261.945 241.217 257.173 241.217 251.287C241.217 245.402 231.21 240.63 218.865 240.63C206.52 240.63 196.512 245.402 196.512 251.287C196.512 257.173 206.52 261.945 218.865 261.945Z" fill="#EAEAEA"/>
<path d="M240.753 157.235C240.674 157.338 240 158.455 240 158.455L236.902 162.892L233.883 167.416C233.788 167.554 233.652 167.658 233.494 167.714C233.336 167.769 233.164 167.773 233.004 167.725L232.798 167.654C231.752 167.266 230.183 166.608 228.099 165.649C226.427 164.857 226.514 164.627 226.514 164.342C226.493 164.115 226.493 163.887 226.514 163.661C226.855 163.011 227.909 161.387 229.327 159.334C231.847 155.674 233.059 154.049 233.812 152.995C233.919 152.842 234.078 152.731 234.259 152.683C234.441 152.635 234.633 152.653 234.802 152.734C236.157 153.186 238.907 154.366 240.349 154.953H240.412C241.189 155.373 240.761 157.203 240.753 157.235Z" fill="#4F46E5"/>
<path d="M240.832 157.092L240.04 158.455L237.013 162.979L233.844 167.393C233.749 167.53 233.612 167.635 233.454 167.69C233.296 167.746 233.125 167.75 232.964 167.702L232.758 167.63C231.712 167.242 230.143 166.584 228.06 165.626C226.388 164.833 226.475 164.603 226.475 164.318C226.453 164.092 226.453 163.863 226.475 163.637C228.06 164.334 233.075 166.711 233.242 166.624C233.638 166.434 237.037 160.982 238.844 158.201C239.747 156.815 240.151 156.228 240.428 155.753C240.479 155.696 240.517 155.629 240.539 155.556C240.562 155.483 240.568 155.406 240.557 155.331C240.547 155.255 240.52 155.183 240.478 155.119C240.437 155.055 240.382 155.001 240.317 154.96H240.254C240.432 155.054 240.585 155.188 240.702 155.352C240.819 155.516 240.896 155.705 240.927 155.903C241.014 156.093 241.05 156.302 241.034 156.51C241.017 156.718 240.948 156.918 240.832 157.092Z" fill="#4F46E5"/>
<path opacity="0.1" d="M240.832 157.092L240.04 158.455L237.013 162.979L233.844 167.393C233.749 167.53 233.612 167.635 233.454 167.69C233.296 167.746 233.125 167.75 232.964 167.702L232.758 167.63C231.712 167.242 230.143 166.584 228.06 165.626C226.388 164.833 226.475 164.603 226.475 164.318C226.453 164.092 226.453 163.863 226.475 163.637C228.06 164.334 233.075 166.711 233.242 166.624C233.638 166.434 237.037 160.982 238.844 158.201C239.747 156.815 240.151 156.228 240.428 155.753C240.479 155.696 240.517 155.629 240.539 155.556C240.562 155.483 240.568 155.406 240.557 155.331C240.547 155.255 240.52 155.183 240.478 155.119C240.437 155.055 240.382 155.001 240.317 154.96H240.254C240.432 155.054 240.585 155.188 240.702 155.352C240.819 155.516 240.896 155.705 240.927 155.903C241.014 156.093 241.05 156.302 241.034 156.51C241.017 156.718 240.948 156.918 240.832 157.092Z" fill="#141414"/>
<path d="M233.852 154.033L239.414 156.363L233.487 165.174L227.957 162.63L233.852 154.033Z" fill="white"/>
<path d="M232.291 184.737C233.812 184.302 236.11 178.644 237.837 172.226C239.565 165.808 240.476 164.39 240.531 162.369C240.587 160.348 240.444 157.694 240.444 157.694L237.433 162.092C237.303 161.243 237.035 160.422 236.641 159.659C236.253 158.867 235.524 158.241 234.929 158.716C234.612 158.97 235.452 160.055 235.27 162.48C235.255 163.446 235.351 164.411 235.555 165.356L229.961 178.906L232.291 184.737Z" fill="#BD8966"/>
<path d="M209.78 156.64C208.013 156.141 206.515 157.084 205.683 159.897C204.225 165.193 203.165 170.591 202.514 176.045C202.276 178.002 202.007 180.379 203.877 180.562C205.303 180.704 209.423 179.912 210.144 179.199C211.111 178.264 210.936 174.492 210.936 174.492H208.797C208.797 174.492 209.257 171.521 209.391 170.617C209.867 167.583 210.572 163.756 210.572 163.756L209.78 156.64Z" fill="#D39972"/>
<path d="M220.152 153.859L219.431 160.206L213.171 160.935L214.074 152.512L220.152 153.859Z" fill="#BD8966"/>
<path d="M206.753 144.596C207.268 138.733 210.445 136.324 212.902 135.738C217.862 134.573 222.759 136.237 224.787 139.7C225.251 140.784 225.491 141.951 225.491 143.13C225.491 144.31 225.251 145.477 224.787 146.561C223.709 149.018 206.777 144.58 206.777 144.58" fill="#252525"/>
<path d="M225.096 147.75C225.096 147.75 225.991 150.167 225.754 150.349C225.38 150.484 224.986 150.553 224.589 150.555L225.096 147.75Z" fill="#BD8966"/>
<path d="M222.426 140.112C223.606 141.126 225.595 142.964 225.064 148.035C224.478 153.281 223.21 154.699 222.354 155.206C221.784 155.547 219.256 154.953 218.084 154.263C216.626 153.399 213.393 151.173 212.41 148.17C211.246 144.636 211.832 140.421 214.383 139.319C215.682 138.761 217.1 138.54 218.507 138.679C219.913 138.818 221.262 139.31 222.426 140.112Z" fill="#BD8966"/>
<path d="M223.884 140.246C223.909 141.649 223.618 143.039 223.032 144.313C222.447 145.587 221.581 146.713 220.5 147.607C220.5 147.607 219.763 145.698 218.123 146.134C216.483 146.569 216.539 148.732 217.711 149.905C218.015 150.24 218.409 150.482 218.845 150.601C219.282 150.72 219.743 150.713 220.175 150.579C219.942 152.078 219.24 153.464 218.171 154.54C216.465 154.933 214.682 154.836 213.028 154.262C211.375 153.687 209.916 152.658 208.821 151.292C205.2 146.942 206.27 140.032 211.927 137.996C213.927 137.193 216.115 136.979 218.234 137.377C220.352 137.776 222.312 138.771 223.884 140.246Z" fill="#252525"/>
<path d="M212.418 249.346L215.12 253.102C213.89 253.659 212.549 253.93 211.198 253.895C208.781 253.99 208.116 253.197 208.029 253.007C207.617 252.128 208.258 250.551 208.433 249.196L212.418 249.346Z" fill="#252525"/>
<path d="M214.954 251.288C214.954 251.288 218.226 251.074 220.5 250.789C222.774 250.503 224.557 251.581 224.026 252.54C223.495 253.498 222.244 254.251 220.302 254.917C218.646 255.479 216.649 255.883 214.914 256.398C213.179 256.913 211.998 257.547 210.992 257.191C209.867 256.803 209.407 256.351 209.479 255.535C209.724 254.371 210.028 253.221 210.39 252.088L214.954 251.288Z" fill="#252525"/>
<path d="M208.029 245.559C208.029 245.559 208.433 248.966 208.464 249.703C208.496 250.44 211.792 250.67 212.426 249.33L212.529 245.163L208.029 245.559Z" fill="#D39972"/>
<path d="M211.349 247.659L210.2 252.833C210.2 252.833 210.081 253.459 212.783 253.863C215.485 254.267 219.7 252.453 220.421 252.088C221.142 251.724 221.214 250.987 218.575 251.129C215.936 251.272 214.994 251.288 214.994 251.288L215.857 248.99L211.349 247.659Z" fill="#BD8966"/>
<path d="M208.029 178.391C205.77 181.901 203.631 184.991 203.171 188.937C202.205 197.273 205.374 206.797 206.048 212.961C204.766 214.715 204.026 216.806 203.916 218.975C203.916 221.527 208.029 245.559 208.029 245.559C208.029 245.559 211.016 246.47 212.521 245.163L215.35 200.949L213.86 195.569L208.029 178.391Z" fill="#2C2C2C"/>
<path d="M215.35 200.949L213.86 195.569C211.057 194.84 208.351 193.776 205.802 192.399C205.802 192.399 207.331 195.173 211.697 196.694L213.971 203.611L214.169 219.459L215.35 200.949Z" fill="#191919"/>
<path d="M208.029 178.391C206.824 180.356 203.932 183.731 204.55 186.964C205.295 190.926 207.403 193.644 213.86 195.569L219.914 217.494C219.914 217.494 216.745 220.449 215.802 223.254C214.859 226.059 211.349 247.659 211.349 247.659C211.349 247.659 212.426 249.418 215.833 248.99C215.833 248.99 227.719 221.899 228.511 220.156C229.525 218.372 229.881 216.288 229.517 214.269C229.137 211.432 225.096 180.356 225.096 180.356L208.029 178.391Z" fill="#2C2C2C"/>
<path d="M206.927 158.605C207.17 157.959 207.628 157.416 208.224 157.066C208.819 156.717 209.517 156.584 210.2 156.688C214.423 157.837 220.992 159.35 222.236 159.715C222.236 159.715 221.673 167.852 226.538 170.72C226.308 172.535 225.072 180.356 225.072 180.356C225.072 180.356 219.225 183.192 214.415 181.798C209.605 180.403 207.989 178.39 207.989 178.39L210.366 174.468C209.851 173.193 207.862 168.858 206.579 164.833C206.133 162.764 206.254 160.612 206.927 158.605Z" fill="white"/>
<path d="M209.78 172.923C211.78 174.127 213.877 175.163 216.047 176.021C214.074 175.97 212.146 175.425 210.437 174.437L209.78 172.923Z" fill="#EAEAEA"/>
<path d="M226.435 170.11C224.707 169.318 223.285 167.983 222.386 166.307C222.532 167.594 222.973 168.831 223.676 169.919C224.378 171.008 225.322 171.919 226.435 172.583V170.11Z" fill="#EAEAEA"/>
<path d="M222.275 159.715C224.93 160.507 226.578 160.761 228.012 162.044C229.898 163.74 231.847 173.327 232.243 175.308C232.933 178.739 233.693 182.305 232.948 183.905C232.41 185.062 229.478 185.926 228.194 182.186C227.925 181.394 227.869 181.029 227.632 180.316C226.419 176.735 224.597 169.889 224.597 169.889C224.597 169.889 221.008 167.908 222.275 159.715Z" fill="#BD8966"/>
<path d="M209.407 137.996C208.464 138.543 206.761 139.073 205.699 144.026C204.835 148.18 204.32 152.4 204.162 156.64C204.201 158.177 207.387 162.448 214.106 162.044C220.825 161.64 223.266 157.702 223.266 157.702C223.266 157.702 219.962 156.355 220.223 150.571C220.223 150.571 219.058 152.861 215.865 151.712C212.672 150.563 209.407 137.996 209.407 137.996Z" fill="#252525"/>
<path d="M299.957 135.479C299.957 136.735 299.579 137.963 298.871 139.002C298.163 140.04 297.159 140.842 295.989 141.301C294.819 141.76 293.538 141.856 292.312 141.576C291.087 141.296 289.975 140.654 289.12 139.732L288.708 139.233C287.747 137.951 287.315 136.349 287.5 134.758C287.686 133.167 288.475 131.708 289.705 130.682C290.934 129.655 292.511 129.14 294.11 129.243C295.708 129.345 297.207 130.057 298.296 131.232L298.721 131.745C299.523 132.825 299.956 134.134 299.957 135.479Z" fill="#2C2C2C"/>
<path d="M299.956 135.478C299.957 136.735 299.579 137.963 298.871 139.002C298.163 140.04 297.159 140.841 295.989 141.301C294.819 141.76 293.538 141.856 292.312 141.576C291.087 141.296 289.975 140.654 289.12 139.732L288.708 139.232L262.674 107.79L273.645 101.457L298.295 131.218L298.721 131.731C299.525 132.815 299.959 134.129 299.956 135.478Z" fill="#2C2C2C"/>
<path d="M278.419 126.802C279.512 127.949 281 128.638 282.582 128.73C284.164 128.821 285.721 128.309 286.94 127.296C288.158 126.283 288.947 124.846 289.146 123.274C289.345 121.702 288.94 120.113 288.013 118.829L284.792 114.946C285.755 116.229 286.188 117.832 286.002 119.424C285.817 121.017 285.026 122.477 283.795 123.503C282.563 124.529 280.984 125.043 279.384 124.939C277.784 124.834 276.286 124.118 275.198 122.94L278.419 126.802Z" fill="#4F46E5"/>
<path d="M273.227 52.0277C275.192 52.2465 277.092 52.8645 278.81 53.8439L270.891 49.2393C265.577 45.5867 257.927 45.8027 249.427 50.7044C233.378 59.9744 220.361 82.5181 220.361 101.058C220.361 110.166 223.46 116.675 228.571 119.767L228.679 119.834L237.132 124.702C235.633 123.727 234.327 122.484 233.277 121.036C235.36 121.264 237.466 121.143 239.509 120.678C240.252 120.516 241.001 120.321 241.764 120.077C241.664 120.047 241.567 120.009 241.474 119.963C241.067 119.772 240.679 119.547 240.312 119.288C239.648 118.824 239.056 118.265 238.557 117.627C237.875 116.753 237.32 115.787 236.91 114.757C236.36 114.837 235.805 114.877 235.249 114.879C233.935 114.905 232.631 114.645 231.427 114.116C231.146 113.987 230.873 113.84 230.61 113.677C230.374 113.528 230.138 113.353 229.935 113.177C229.447 110.892 229.209 108.56 229.226 106.223C229.226 87.6899 242.243 65.1394 258.306 55.8694C260.356 54.6731 262.529 53.6998 264.787 52.9662C265.396 53.2148 265.968 53.5441 266.489 53.9452C267.04 54.3682 267.537 54.858 267.967 55.4035C268.652 56.2792 269.209 57.2476 269.621 58.2797C270.174 58.2024 270.731 58.164 271.289 58.165C272.816 58.124 274.325 58.4898 275.664 59.225C276.003 59.4096 276.326 59.6218 276.629 59.8596C276.508 59.3195 276.38 58.7861 276.224 58.2797C275.615 56.0305 274.599 53.9116 273.227 52.0277Z" fill="#252525"/>
<path d="M278.81 53.8445L278.351 53.5947C276.755 52.7588 275.017 52.2276 273.226 52.0283C271.305 51.814 269.361 51.9029 267.467 52.2916C266.555 52.4645 265.653 52.69 264.767 52.9668C262.509 53.7004 260.336 54.6737 258.285 55.87C242.223 65.14 229.206 87.6905 229.206 106.224C229.189 108.561 229.426 110.892 229.915 113.178C230.002 113.59 230.104 113.981 230.205 114.373C230.807 116.763 231.851 119.018 233.284 121.023C233.923 121.906 234.659 122.714 235.478 123.434C236 123.893 236.555 124.312 237.139 124.689C242.439 128.112 249.967 127.815 258.272 123.008C274.334 113.738 287.351 91.1945 287.351 72.6546C287.344 63.3846 284.083 56.8692 278.81 53.8445ZM275.637 59.2458C275.975 59.4304 276.298 59.6427 276.602 59.8805C277.111 60.294 277.575 60.7602 277.986 61.2713C280.012 63.8099 281.085 67.7596 281.085 72.6748C281.085 88.8787 269.202 109.485 255.139 117.607C251.594 119.632 248.185 120.74 245.288 120.74C244.08 120.754 242.881 120.524 241.764 120.065C241.664 120.035 241.567 119.996 241.473 119.95C241.067 119.76 240.679 119.534 240.312 119.275C239.857 118.955 239.436 118.588 239.056 118.181C238.888 118.005 238.726 117.809 238.563 117.614C237.881 116.74 237.326 115.774 236.916 114.744C235.888 112.02 235.397 109.122 235.471 106.21C235.471 105.994 235.471 105.785 235.471 105.535C235.768 89.3986 247.523 69.2585 261.404 61.251C261.722 61.0687 262.046 60.8864 262.37 60.7177C264.608 59.4672 267.053 58.628 269.587 58.2398C270.14 58.1624 270.697 58.1241 271.255 58.125C272.456 58.1147 273.648 58.3442 274.759 58.8002C275.064 58.9212 275.357 59.068 275.637 59.2391V59.2458Z" fill="#2C2C2C"/>
<path d="M281.085 72.6676C281.085 88.8715 269.202 109.478 255.139 117.6C254.286 118.096 253.407 118.547 252.506 118.95C250.256 120.035 247.805 120.638 245.308 120.719C244.1 120.733 242.901 120.504 241.784 120.044C241.684 120.014 241.587 119.975 241.494 119.929C241.087 119.739 240.699 119.513 240.332 119.254C239.668 118.791 239.076 118.231 238.577 117.593C238.401 117.357 238.219 117.127 238.057 116.864C238.374 116.864 238.732 116.911 239.043 116.911C241.939 116.911 245.349 115.824 248.893 113.778C262.937 105.703 274.827 85.1244 274.827 68.8664C274.827 64.4036 273.942 60.7645 272.261 58.2056C273.447 58.2835 274.601 58.6273 275.637 59.2116C275.976 59.3962 276.298 59.6084 276.602 59.8462C277.111 60.2597 277.575 60.7259 277.986 61.2371C279.769 63.4719 280.815 66.7937 281.031 70.9054C281.065 71.4996 281.085 72.0802 281.085 72.6676Z" fill="#191919"/>
<path opacity="0.6" d="M278.372 70.7975C278.372 87.0014 266.489 107.607 252.425 115.73C248.88 117.755 245.478 118.862 242.574 118.862C241.368 118.877 240.172 118.647 239.057 118.187C238.888 118.012 238.726 117.816 238.564 117.62C237.882 116.747 237.327 115.78 236.917 114.751C235.888 112.026 235.397 109.128 235.472 106.217C235.472 106.001 235.472 105.791 235.472 105.541C235.769 89.405 247.523 69.2649 261.405 61.2574C261.722 61.0751 262.046 60.8928 262.37 60.724C264.609 59.4736 267.053 58.6344 269.588 58.2462C270.14 58.1688 270.697 58.1305 271.255 58.1314C272.457 58.1211 273.648 58.3506 274.759 58.8066C274.942 58.9889 275.111 59.1847 275.273 59.3805C277.298 61.9326 278.372 65.8823 278.372 70.7975Z" fill="white"/>
<path d="M44.9336 18.8026L62.6666 8.54152C63.2641 8.23682 63.9253 8.07797 64.596 8.07797C65.2667 8.07797 65.9279 8.23682 66.5254 8.54152L68.1102 9.44481C68.6705 9.81242 69.1367 10.3065 69.4712 10.8873C69.8056 11.4681 69.999 12.1194 70.0356 12.7886V27.1461C69.999 27.8153 69.8056 28.4666 69.4712 29.0474C69.1367 29.6282 68.6705 30.1223 68.1102 30.4899L50.4009 40.751C49.802 41.0557 49.1395 41.2146 48.4675 41.2146C47.7955 41.2146 47.1331 41.0557 46.5342 40.751L44.9495 39.8477C44.38 39.4801 43.9063 38.9822 43.5673 38.3953C43.2284 37.8084 43.034 37.1492 43.0002 36.4722V22.1464C43.0353 21.4759 43.2287 20.8232 43.5648 20.242C43.9009 19.6607 44.37 19.1674 44.9336 18.8026Z" fill="#4F46E5"/>
<path opacity="0.3" d="M44.9336 18.8026L62.6666 8.54152C63.2641 8.23682 63.9253 8.07797 64.596 8.07797C65.2667 8.07797 65.9279 8.23682 66.5254 8.54152L68.1102 9.44481C68.6705 9.81242 69.1367 10.3065 69.4712 10.8873C69.8056 11.4681 69.999 12.1194 70.0356 12.7886V27.1461C69.999 27.8153 69.8056 28.4666 69.4712 29.0474C69.1367 29.6282 68.6705 30.1223 68.1102 30.4899L50.4009 40.751C49.802 41.0557 49.1395 41.2146 48.4675 41.2146C47.7955 41.2146 47.1331 41.0557 46.5342 40.751L44.9495 39.8477C44.38 39.4801 43.9063 38.9822 43.5673 38.3953C43.2284 37.8084 43.034 37.1492 43.0002 36.4722V22.1464C43.0353 21.4759 43.2287 20.8232 43.5648 20.242C43.9009 19.6607 44.37 19.1674 44.9336 18.8026Z" fill="white"/>
<path d="M59.8538 41.884L57.239 36.9635L59.3467 30.894V27.1778L52.9048 30.9257V34.6418L55.678 39.396C55.72 39.4691 55.7837 39.5273 55.8603 39.5624L59.8538 41.884Z" fill="#4F46E5"/>
<path opacity="0.1" d="M59.8538 41.884L57.239 36.9635L59.3467 30.894V27.1778L52.9048 30.9257V34.6418L55.678 39.396C55.72 39.4691 55.7837 39.5273 55.8603 39.5624L59.8538 41.884Z" fill="#141414"/>
<path d="M50.4009 40.7511C49.3312 41.3691 48.4675 40.8699 48.4675 39.6338V25.2763C48.5044 24.6073 48.6987 23.9565 49.0347 23.3768C49.3707 22.7971 49.8388 22.305 50.4009 21.9404L68.1418 11.6397C69.2036 11.0296 70.0673 11.5288 70.0673 12.757V27.1145C70.0306 27.7837 69.8373 28.435 69.5029 29.0158C69.1684 29.5966 68.7022 30.0907 68.1418 30.4583" fill="#4F46E5"/>
<path d="M43.0002 36.4722C43.0371 37.1422 43.2314 37.7942 43.5673 38.3751C43.9032 38.9561 44.3713 39.4497 44.9336 39.816L46.5183 40.7192C47.0634 40.9917 47.6597 41.1466 48.2685 41.1739C48.8772 41.2012 49.485 41.1003 50.0522 40.8777C49.141 41.2184 48.4675 40.7034 48.4675 39.602V25.2761C48.4908 24.6048 48.6844 23.9504 49.0301 23.3745L43.6024 20.2447C43.2539 20.8198 43.0576 21.4743 43.0319 22.1463L43.0002 36.4722Z" fill="#4F46E5"/>
<path opacity="0.1" d="M43.0002 36.4722C43.0371 37.1422 43.2314 37.7942 43.5673 38.3751C43.9032 38.9561 44.3713 39.4497 44.9336 39.816L46.5183 40.7192C47.0634 40.9917 47.6597 41.1466 48.2685 41.1739C48.8772 41.2012 49.485 41.1003 50.0522 40.8777C49.141 41.2184 48.4675 40.7034 48.4675 39.602V25.2761C48.4908 24.6048 48.6844 23.9504 49.0301 23.3745L43.6024 20.2447C43.2539 20.8198 43.0576 21.4743 43.0319 22.1463L43.0002 36.4722Z" fill="#141414"/>
<path d="M56.9458 36.9398L59.7111 41.694C59.7508 41.762 59.8091 41.8172 59.8791 41.8531C59.9492 41.889 60.028 41.9041 60.1064 41.8966C60.1847 41.8891 60.2593 41.8593 60.3212 41.8108C60.3832 41.7622 60.4299 41.6969 60.456 41.6227L63.3798 33.184V29.4678L56.9458 33.184V36.9398Z" fill="#4F46E5"/>
<path d="M52.5403 28.3664C52.0058 28.7104 51.5619 29.1779 51.2461 29.7295C50.9303 30.2812 50.7518 30.9007 50.7258 31.5358C50.7258 32.6927 51.5182 33.1205 52.5403 32.5817C53.0712 32.2339 53.5124 31.7655 53.8277 31.2146C54.1431 30.6638 54.3237 30.0462 54.3548 29.4123C54.3628 28.2554 53.5704 27.7563 52.5403 28.3664Z" fill="white"/>
<path d="M59.2358 24.4918C58.7025 24.8378 58.2591 25.3057 57.9423 25.8567C57.6254 26.4078 57.4441 27.0263 57.4133 27.6613C57.4133 28.8181 58.2057 29.2856 59.2358 28.7072C59.7667 28.3594 60.2078 27.8909 60.5232 27.3401C60.8385 26.7893 61.0191 26.1717 61.0503 25.5377C61.0503 24.3809 60.2341 23.9134 59.2358 24.4918Z" fill="white"/>
<path d="M65.9231 20.6251C65.3922 20.9729 64.9511 21.4414 64.6358 21.9922C64.3204 22.543 64.1398 23.1606 64.1086 23.7945C64.1086 24.9514 64.901 25.3793 65.9231 24.8405C66.4577 24.4965 66.9016 24.0289 67.2174 23.4773C67.5332 22.9256 67.7116 22.3061 67.7376 21.671C67.7376 20.5062 66.9294 20.0387 65.9231 20.6251Z" fill="white"/>
</svg>
