<svg width="340" height="311" viewBox="0 0 340 311" fill="none" xmlns="http://www.w3.org/2000/svg">
<path d="M49.7917 282.938C116.177 319.512 223.823 319.512 290.208 282.938C356.593 246.363 356.601 187.068 290.208 150.494C223.815 113.919 116.177 113.919 49.7917 150.494C-16.5933 187.068 -16.6012 246.363 49.7917 282.938Z" fill="#F5F5F5"/>
<path d="M233.881 273.687C253.9 273.687 270.129 265.531 270.129 255.47C270.129 245.41 253.9 237.254 233.881 237.254C213.862 237.254 197.633 245.41 197.633 255.47C197.633 265.531 213.862 273.687 233.881 273.687Z" fill="#EAEAEA"/>
<path d="M298.095 232.142C313.54 232.142 326.06 225.85 326.06 218.088C326.06 210.327 313.54 204.035 298.095 204.035C282.65 204.035 270.129 210.327 270.129 218.088C270.129 225.85 282.65 232.142 298.095 232.142Z" fill="#EAEAEA"/>
<path d="M181.059 192.011C181.691 184.422 199.082 155.955 204.401 151.542C209.719 147.13 219.111 135.981 215.065 129.647C211.019 123.313 199.128 126.132 187.961 145.876C179.302 161.19 176.61 195.059 176.61 195.059L181.059 192.011Z" fill="#4F46E5"/>
<path d="M178.679 191.296H178.606C178.547 191.287 178.49 191.266 178.439 191.235C178.388 191.204 178.343 191.163 178.308 191.114C178.273 191.066 178.248 191.01 178.235 190.952C178.222 190.894 178.22 190.833 178.231 190.774C183.146 158.993 193.591 139.166 210.159 130.159C210.265 130.101 210.391 130.087 210.508 130.121C210.566 130.138 210.619 130.167 210.666 130.205C210.713 130.242 210.752 130.289 210.781 130.342C210.81 130.395 210.828 130.453 210.834 130.513C210.841 130.573 210.835 130.633 210.818 130.691C210.801 130.749 210.773 130.803 210.735 130.85C210.698 130.897 210.651 130.936 210.598 130.964C194.295 139.825 184.007 159.441 179.128 190.921C179.109 191.026 179.053 191.121 178.971 191.189C178.889 191.258 178.786 191.296 178.679 191.296Z" fill="white"/>
<path d="M182.808 155.195C182.808 155.195 196.767 131.066 208.328 120.017C214.736 113.893 218.672 109.948 218.324 105.316C218.068 101.801 215.148 99.925 208.868 101.472C196.355 104.548 189.645 117.225 185.325 131.423C182.259 141.418 182.808 155.195 182.808 155.195Z" fill="#4F46E5"/>
<path opacity="0.2" d="M182.808 155.195C182.808 155.195 196.767 131.066 208.328 120.017C214.736 113.893 218.672 109.948 218.324 105.316C218.068 101.801 215.148 99.925 208.868 101.472C196.355 104.548 189.645 117.225 185.325 131.423C182.259 141.418 182.808 155.195 182.808 155.195Z" fill="#141414"/>
<path d="M184.428 151.231H184.364C184.243 151.21 184.135 151.143 184.063 151.044C183.991 150.945 183.961 150.821 183.979 150.7C188.95 119.339 207.843 107.531 213.518 104.657C213.626 104.603 213.752 104.593 213.866 104.631C213.981 104.669 214.077 104.751 214.132 104.858C214.16 104.912 214.177 104.97 214.182 105.03C214.187 105.09 214.18 105.151 214.161 105.208C214.142 105.265 214.112 105.318 214.072 105.363C214.033 105.409 213.984 105.445 213.93 105.472C208.356 108.3 189.792 119.907 184.886 150.846C184.868 150.955 184.812 151.053 184.728 151.124C184.644 151.194 184.538 151.232 184.428 151.231Z" fill="white"/>
<path d="M97.3903 143.286L4.37549 196.985V201.115L100.962 256.879L193.967 203.179V199.05L97.3903 143.286Z" fill="#4F46E5"/>
<path d="M140.317 217.62L150.982 223.853L168.898 213.51L158.204 207.297L140.317 217.62Z" fill="white"/>
<path opacity="0.15" d="M4.37549 196.985L100.962 252.749V256.878L4.37549 201.114V196.985Z" fill="#141414"/>
<path opacity="0.1" d="M100.962 252.748L193.967 199.049V203.178L100.962 256.877V252.748Z" fill="#141414"/>
<path d="M183.515 180.764L179.37 188.931L180.042 189.272L184.187 181.105L183.515 180.764Z" fill="#252525"/>
<path d="M175.816 180.071L175.184 180.462L179.227 186.993L179.859 186.602L175.816 180.071Z" fill="#252525"/>
<path d="M180.289 179.313V198.991C180.283 199.046 180.263 199.098 180.23 199.143C180.198 199.188 180.154 199.223 180.103 199.245C179.965 199.315 179.813 199.352 179.658 199.352C179.503 199.352 179.35 199.315 179.212 199.245C179.163 199.222 179.121 199.187 179.09 199.142C179.059 199.097 179.04 199.045 179.036 198.991V179.313H180.289Z" fill="#252525"/>
<path d="M186.052 182.327C191.099 182.327 195.191 178.235 195.191 173.187C195.191 168.14 191.099 164.048 186.052 164.048C181.004 164.048 176.913 168.14 176.913 173.187C176.913 178.235 181.004 182.327 186.052 182.327Z" fill="#2C2C2C"/>
<path d="M188.919 170.86C190.093 167.141 191.355 165.693 190.553 165.243C189.039 164.386 187.312 163.978 185.575 164.068C183.837 164.158 182.162 164.742 180.745 165.751C179.328 166.761 178.228 168.153 177.576 169.766C176.923 171.379 176.744 173.144 177.061 174.855C177.377 176.566 178.175 178.151 179.361 179.424C180.546 180.697 182.071 181.605 183.755 182.041C185.439 182.478 187.213 182.424 188.868 181.887C190.523 181.351 191.99 180.353 193.097 179.011C190.396 179.793 187.393 175.674 188.919 170.86Z" fill="#191919"/>
<path d="M171.658 182.2C175.203 182.2 178.076 179.326 178.076 175.781C178.076 172.236 175.203 169.362 171.658 169.362C168.113 169.362 165.239 172.236 165.239 175.781C165.239 179.326 168.113 182.2 171.658 182.2Z" fill="#2C2C2C"/>
<path d="M171.658 169.353C170.309 169.352 168.994 169.776 167.901 170.567C167.734 174.481 171.061 178.316 170.132 179.608C169.202 180.899 166.903 180.097 166.11 179.011C166.678 179.982 167.491 180.787 168.468 181.345C169.444 181.904 170.551 182.195 171.676 182.191C172.801 182.187 173.905 181.887 174.878 181.322C175.85 180.756 176.657 179.945 177.218 178.97C177.778 177.994 178.072 176.888 178.071 175.763C178.069 174.638 177.772 173.533 177.209 172.559C176.646 171.585 175.837 170.777 174.862 170.214C173.888 169.651 172.783 169.354 171.658 169.353Z" fill="#191919"/>
<path d="M191.145 171.54C192.639 165.207 188.717 158.862 182.385 157.368C176.052 155.873 169.707 159.795 168.213 166.127C166.718 172.46 170.64 178.805 176.973 180.3C183.305 181.794 189.65 177.872 191.145 171.54Z" fill="#2C2C2C"/>
<path d="M191.16 171.544C190.701 173.432 189.781 175.177 188.482 176.622C187.183 178.067 185.546 179.168 183.717 179.824C181.888 180.481 179.925 180.673 178.003 180.384C176.082 180.095 174.262 179.334 172.707 178.169C171.152 177.003 169.911 175.47 169.094 173.706C168.278 171.943 167.912 170.005 168.029 168.065C168.146 166.125 168.743 164.245 169.766 162.593C170.789 160.941 172.206 159.568 173.889 158.598C172.869 159.18 171.939 159.909 171.13 160.761C170.926 161.643 170.821 162.546 170.817 163.451C170.797 165.819 171.493 168.137 172.814 170.102C174.135 172.066 176.019 173.586 178.218 174.461C180.418 175.336 182.831 175.526 185.141 175.005C187.45 174.484 189.548 173.278 191.16 171.544Z" fill="#191919"/>
<path d="M22.6434 178.43L18.4983 186.597L19.1702 186.938L23.3153 178.771L22.6434 178.43Z" fill="#252525"/>
<path d="M14.9597 177.782L14.3274 178.173L18.3704 184.704L19.0027 184.313L14.9597 177.782Z" fill="#252525"/>
<path d="M19.4549 177.015V196.692C19.451 196.746 19.4327 196.799 19.4017 196.843C19.3707 196.888 19.3282 196.924 19.2787 196.947C19.1409 197.017 18.9883 197.054 18.8335 197.054C18.6787 197.054 18.5261 197.017 18.3883 196.947C18.3376 196.924 18.2937 196.889 18.261 196.844C18.2284 196.8 18.2081 196.747 18.2024 196.692V177.015H19.4549Z" fill="#252525"/>
<path d="M25.1984 180.037C30.2457 180.037 34.3374 175.945 34.3374 170.898C34.3374 165.851 30.2457 161.759 25.1984 161.759C20.151 161.759 16.0593 165.851 16.0593 170.898C16.0593 175.945 20.151 180.037 25.1984 180.037Z" fill="#2C2C2C"/>
<path d="M28.0659 168.559C29.2401 164.841 30.4926 163.393 29.7 162.943C28.1863 162.085 26.4593 161.677 24.7219 161.767C22.9844 161.857 21.3088 162.441 19.8918 163.451C18.4749 164.46 17.3755 165.853 16.7228 167.466C16.0702 169.078 15.8914 170.844 16.2076 172.555C16.5237 174.266 17.3216 175.851 18.5075 177.124C19.6934 178.397 21.218 179.305 22.9021 179.741C24.5862 180.177 26.36 180.124 28.0148 179.587C29.6696 179.05 31.1369 178.052 32.244 176.71C29.5434 177.503 26.5297 173.373 28.0659 168.559Z" fill="#191919"/>
<path d="M10.8034 179.9C14.3484 179.9 17.2223 177.026 17.2223 173.481C17.2223 169.936 14.3484 167.062 10.8034 167.062C7.25834 167.062 4.38452 169.936 4.38452 173.481C4.38452 177.026 7.25834 179.9 10.8034 179.9Z" fill="#2C2C2C"/>
<path d="M10.8058 167.062C9.45829 167.06 8.14411 167.481 7.04846 168.265C6.87233 172.179 10.209 176.015 9.2794 177.307C8.34984 178.598 6.0504 177.796 5.24805 176.71C5.81416 177.682 6.62601 178.489 7.60221 179.049C8.57842 179.609 9.68465 179.902 10.81 179.9C11.9353 179.897 13.0403 179.599 14.0139 179.034C14.9876 178.47 15.7959 177.66 16.3576 176.685C16.9193 175.71 17.2148 174.604 17.2145 173.479C17.2141 172.353 16.9179 171.248 16.3555 170.273C15.7931 169.298 14.9844 168.489 14.0103 167.925C13.0363 167.361 11.9312 167.064 10.8058 167.062Z" fill="#191919"/>
<path d="M27.1616 174.887C31.7623 170.286 31.7623 162.827 27.1616 158.226C22.5608 153.625 15.1016 153.625 10.5008 158.226C5.90006 162.827 5.90004 170.286 10.5008 174.887C15.1015 179.488 22.5608 179.488 27.1616 174.887Z" fill="#2C2C2C"/>
<path d="M30.2961 169.245C29.8385 171.134 28.9189 172.881 27.6199 174.327C26.3209 175.773 24.6831 176.875 22.8535 177.532C21.0239 178.189 19.0597 178.382 17.1373 178.092C15.2148 177.803 13.3943 177.041 11.8391 175.875C10.2838 174.708 9.04253 173.174 8.22659 171.409C7.41065 169.645 7.0456 167.705 7.16421 165.765C7.28282 163.824 7.88137 161.944 8.90615 160.292C9.93093 158.64 11.3499 157.268 13.0356 156.3C12.0118 156.877 11.0814 157.606 10.2763 158.462C10.0717 159.345 9.96667 160.247 9.96316 161.153C9.94533 163.518 10.6423 165.834 11.9626 167.796C13.283 169.758 15.1652 171.276 17.3629 172.151C19.5605 173.026 21.971 173.216 24.2788 172.698C26.5865 172.179 28.6838 170.976 30.2961 169.245Z" fill="#191919"/>
<path d="M47.304 184.598L122.432 227.964V161.877L47.304 118.511V184.598Z" fill="white"/>
<path d="M100.963 203.179V240.361L25.8447 196.985V159.813L100.963 203.179Z" fill="white"/>
<path d="M25.8447 172.2L100.963 215.576V203.179L25.8447 159.813V172.2Z" fill="#EAEAEA"/>
<path d="M47.304 130.898L122.432 174.265V161.877L47.304 118.501V130.898Z" fill="#EAEAEA"/>
<path d="M122.43 161.878L172.509 132.964V199.051L122.43 227.965V161.878Z" fill="white"/>
<path d="M100.962 203.178L122.43 182.532V227.963L100.962 240.361V203.178Z" fill="white"/>
<path d="M147.469 118.501L122.43 161.877L172.509 132.963L147.469 118.501Z" fill="white"/>
<path d="M118.85 168.071L147.47 118.501V115.409L118.85 164.979V168.071Z" fill="#4F46E5"/>
<path opacity="0.1" d="M118.85 168.071L147.47 118.501V115.409L118.85 164.979V168.071Z" fill="#141414"/>
<path d="M72.3438 72.0414L43.728 121.605L118.849 164.977L147.465 115.413L72.3438 72.0414Z" fill="#4F46E5"/>
<path d="M43.7319 121.602L118.85 164.979V168.071L43.7319 124.704V121.602Z" fill="#4F46E5"/>
<path opacity="0.15" d="M43.7319 121.602L118.85 164.979V168.071L43.7319 124.704V121.602Z" fill="#141414"/>
<path d="M147.47 115.409L178.772 133.482L176.081 135.028L147.47 118.501V115.409Z" fill="#4F46E5"/>
<path opacity="0.15" d="M147.47 115.409L178.772 133.482L176.081 135.028L147.47 118.501V115.409Z" fill="#141414"/>
<path d="M176.082 135.029H172.51V132.964L176.082 135.029Z" fill="#4F46E5"/>
<path opacity="0.3" d="M176.082 135.029H172.51V132.964L176.082 135.029Z" fill="#141414"/>
<path d="M58.8303 121.017V106.144L67.3921 101.202L75.9245 115.977V130.899L58.8303 121.017Z" fill="white"/>
<path opacity="0.2" d="M67.3908 101.202L56.8232 107.298L55.4729 106.516L67.3908 99.6368V101.202Z" fill="#141414"/>
<path d="M75.9243 130.898L84.4665 116.084L88.8305 108.511L75.9243 115.976V130.898Z" fill="white"/>
<path opacity="0.4" d="M56.8228 107.298H58.8286V106.143L56.8228 107.298Z" fill="#141414"/>
<path d="M77.959 119.5L67.3914 101.202V99.6368L79.28 120.263L77.959 119.5Z" fill="#4F46E5"/>
<path opacity="0.1" d="M77.959 119.5L67.3914 101.202V99.6368L79.28 120.263L77.959 119.5Z" fill="#141414"/>
<path d="M79.28 120.264L67.3914 99.6377L79.6909 92.5339L91.5795 113.16L79.28 120.264Z" fill="#4F46E5"/>
<path opacity="0.3" d="M79.28 120.264L67.3914 99.6377L79.6909 92.5339L91.5795 113.16L79.28 120.264Z" fill="white"/>
<path d="M71.6572 113.588L63.1052 108.647V118.51L71.6572 123.452V113.588Z" fill="#2C2C2C"/>
<path d="M63.9758 118.002V109.146L71.6569 113.589V122.434L63.9758 118.002Z" fill="#EAEAEA"/>
<path d="M63.1052 118.51L63.9761 118.001L71.6572 122.434V123.451L63.1052 118.51Z" fill="#191919"/>
<path d="M94.5925 141.672V126.799L103.164 121.858L111.696 136.633V151.555L94.5925 141.672Z" fill="white"/>
<path opacity="0.2" d="M103.164 121.856L92.5964 127.952L91.2363 127.169L103.164 120.291V121.856Z" fill="#141414"/>
<path d="M111.697 151.553L120.229 136.739L124.593 129.166L111.697 136.631V151.553Z" fill="white"/>
<path opacity="0.4" d="M92.5969 127.954H94.593V126.799L92.5969 127.954Z" fill="#141414"/>
<path d="M113.733 140.154L103.166 121.856V120.291L115.045 140.917L113.733 140.154Z" fill="#4F46E5"/>
<path opacity="0.1" d="M113.733 140.154L103.166 121.856V120.291L115.045 140.917L113.733 140.154Z" fill="#141414"/>
<path d="M115.045 140.918L103.166 120.291L115.456 113.178L127.344 133.804L115.045 140.918Z" fill="#4F46E5"/>
<path opacity="0.3" d="M115.045 140.918L103.166 120.291L115.456 113.178L127.344 133.804L115.045 140.918Z" fill="white"/>
<path d="M107.422 134.235L98.8696 129.303V139.166L107.422 144.107V134.235Z" fill="#2C2C2C"/>
<path d="M99.749 138.659V129.803L107.42 134.236V143.091L99.749 138.659Z" fill="#EAEAEA"/>
<path d="M98.8696 139.167L99.7503 138.658L107.422 143.091V144.108L98.8696 139.167Z" fill="#191919"/>
<path d="M47.3031 136.369L122.431 179.735V182.534L97.3917 209.383L22.2637 166.007V163.218L47.3031 136.369Z" fill="#4F46E5"/>
<path d="M47.3031 136.369L122.431 179.735L97.3917 206.585L22.2637 163.218L47.3031 136.369Z" fill="#4F46E5"/>
<path opacity="0.1" d="M97.3904 206.583V209.382L122.43 182.532V179.733L97.3904 206.583Z" fill="#141414"/>
<path opacity="0.15" d="M97.3918 209.382L22.2637 166.006V163.217L97.3918 206.584V209.382Z" fill="#141414"/>
<path d="M54.4656 184.587L36.5789 174.264V193.266L54.4656 203.589V184.587Z" fill="#252525"/>
<path d="M37.675 192.63V174.9L54.4659 184.597V202.317L37.675 192.63Z" fill="white"/>
<path d="M37.675 174.9V179.039L54.4659 188.726V184.587L37.675 174.9Z" fill="white"/>
<path d="M36.5789 193.268L37.6748 192.632L54.4656 202.319V203.591L36.5789 193.268Z" fill="#191919"/>
<path d="M36.5789 183.765L37.6748 183.129L54.4656 192.816V194.088L36.5789 183.765Z" fill="#191919"/>
<path d="M45.1489 198.216L46.2448 198.852V179.85L45.1489 179.214V198.216Z" fill="#191919"/>
<path d="M86.6579 203.178L68.7712 192.855V211.857L86.6579 222.18V203.178Z" fill="#252525"/>
<path d="M69.8662 211.221V193.491L86.657 203.178V220.908L69.8662 211.221Z" fill="white"/>
<path d="M69.8662 193.491V197.62L86.657 207.317V203.178L69.8662 193.491Z" fill="white"/>
<path d="M68.7712 211.836L69.8671 211.2L86.6579 220.887V222.159L68.7712 211.836Z" fill="#191919"/>
<path d="M68.7712 202.357L69.8671 201.721L86.6579 211.408V212.68L68.7712 202.357Z" fill="#191919"/>
<path d="M77.3423 216.808L78.4382 217.444V198.442L77.3423 197.806V216.808Z" fill="#191919"/>
<path d="M111.697 205.254L129.583 194.921V213.923L111.697 224.246V205.254Z" fill="#252525"/>
<path d="M128.487 213.286V195.556L111.697 205.253V222.973L128.487 213.286Z" fill="#EAEAEA"/>
<path d="M128.487 195.556V197.376L111.697 207.063V205.253L128.487 195.556Z" fill="#EAEAEA"/>
<path d="M129.583 213.902L128.487 213.266L111.697 222.953V224.225L129.583 213.902Z" fill="#191919"/>
<path d="M129.583 204.421L128.487 203.785L111.697 213.472V214.744L129.583 204.421Z" fill="#191919"/>
<path d="M121.013 218.873L119.917 219.509V200.507L121.013 199.871V218.873Z" fill="#191919"/>
<path d="M139.984 143.756L157.871 133.433V152.435L139.984 162.758V143.756Z" fill="#252525"/>
<path d="M156.775 151.8V134.07L139.984 143.757V161.487L156.775 151.8Z" fill="#EAEAEA"/>
<path d="M156.775 134.07V135.89L139.984 145.577V143.757L156.775 134.07Z" fill="#EAEAEA"/>
<path d="M157.871 152.434L156.775 151.798L139.984 161.485V162.757L157.871 152.434Z" fill="#191919"/>
<path d="M157.871 142.933L156.775 142.297L139.984 151.994V153.266L157.871 142.933Z" fill="#191919"/>
<path d="M149.3 157.387L148.204 158.023V139.02L149.3 138.384V157.387Z" fill="#191919"/>
<path d="M140.317 217.64V184.597L158.204 174.264V207.317L140.317 217.64Z" fill="#191919"/>
<path d="M157.548 206.819V174.646L140.317 184.597V216.77L157.548 206.819Z" fill="#2C2C2C"/>
<path d="M158.204 174.264L157.548 174.646V206.818L158.204 207.317V174.264Z" fill="#252525"/>
<path d="M269.963 45.8067L263.86 42.1018L267.216 41.3525L270.555 43.8085L269.963 45.8067Z" fill="#CCCCCC"/>
<path d="M259.281 12.6461C259.281 2.65539 253.478 -1.98198 246.349 2.35567L235.816 8.7664C228.71 13.104 222.891 24.7932 222.891 34.8173C222.891 35.2252 222.891 35.6498 222.891 36.0078C222.891 36.2326 222.891 36.4241 222.891 36.6406C222.891 36.857 222.931 37.0319 222.946 37.2234C222.962 37.4149 222.994 37.6646 223.025 37.8811C223.184 39.0642 223.465 40.2255 223.862 41.3445C224.028 41.7608 224.202 42.1771 224.391 42.5268C224.479 42.7199 224.579 42.9063 224.691 43.0846L224.794 43.2594C224.97 43.5577 225.173 43.8366 225.402 44.092C225.528 44.2419 225.647 44.4 225.781 44.5416L226.191 44.9579C226.334 45.0744 226.468 45.216 226.618 45.3325C226.76 45.453 226.91 45.5615 227.068 45.6572L227.534 45.9403C228.137 46.2837 228.791 46.5173 229.468 46.6313C229.52 46.6179 229.574 46.6179 229.626 46.6313C229.808 46.6313 229.973 46.6729 230.155 46.6729C230.347 46.6896 230.54 46.6896 230.731 46.6729C231.239 46.6788 231.745 46.6201 232.239 46.4981C232.535 46.4361 232.828 46.3583 233.116 46.265C234.038 45.9669 234.924 45.5532 235.753 45.0328L246.285 38.6221C247.007 38.1801 247.698 37.6849 248.354 37.1401C248.354 37.0069 248.354 36.8903 248.354 36.7655C248.354 36.6406 248.354 36.3741 248.354 36.2243C248.354 35.8913 248.354 35.5499 248.354 35.2086C248.33 26.6915 253.194 16.6424 259.281 12.6461Z" fill="#CCCCCC"/>
<path d="M261.058 5.44537L254.939 1.73214C254.979 1.73214 255.563 6.21966 255.563 6.21966L260.103 6.7858L261.058 5.44537Z" fill="#CCCCCC"/>
<path d="M232.785 49.079L227.132 45.6988L230.535 44.1586L232.785 49.079Z" fill="#CCCCCC"/>
<path d="M235.816 45.1335C235.776 47.6007 235.024 49.9966 233.661 52.0021C233.408 52.3518 233.795 52.6598 234.079 52.5017C235.37 51.7955 236.513 50.8246 237.443 49.646C239.228 47.4205 240.477 44.7726 241.082 41.9281L235.816 45.1335Z" fill="#CCCCCC"/>
<path d="M233.724 52.4845L239.843 56.1977C239.843 56.1977 243.278 53.1422 243.278 46.9563L236.638 46.4817C236.638 46.4817 236.48 50.5114 233.724 52.4845Z" fill="#CCCCCC"/>
<path d="M250.02 34.2839C250.02 34.5948 250.02 34.8945 250.02 35.1831C250.02 35.3496 250.02 35.4911 250.02 35.6493C250.02 35.8075 250.02 35.9407 250.068 36.0906C250.115 36.2404 250.068 36.4236 250.123 36.5901C250.214 37.3276 250.378 38.0531 250.612 38.7548C250.646 38.8826 250.688 39.0078 250.739 39.1294C250.796 39.2967 250.862 39.4606 250.936 39.6206C250.998 39.7753 251.069 39.9255 251.149 40.0702C251.212 40.2153 251.286 40.3545 251.37 40.4865L251.449 40.6197C251.588 40.8491 251.741 41.0688 251.907 41.2774C251.993 41.3988 252.089 41.5129 252.192 41.6188L252.492 41.9268C252.594 42.0281 252.702 42.1226 252.815 42.2099C252.923 42.2981 253.037 42.3787 253.155 42.4514C253.273 42.5263 253.384 42.6012 253.51 42.6678L253.873 42.851L254.252 42.9925C254.483 43.0663 254.718 43.1274 254.955 43.1757H255.073C255.205 43.1884 255.337 43.1884 255.468 43.1757C255.61 43.1926 255.753 43.1926 255.894 43.1757C256.234 43.1756 256.573 43.1393 256.905 43.0675C257.172 43.0198 257.435 42.9559 257.695 42.876C258.388 42.652 259.053 42.3418 259.676 41.9518L267.572 37.1396C268.276 36.711 268.94 36.212 269.554 35.6493C269.775 35.4495 269.996 35.233 270.217 35.0166C270.615 34.6256 270.992 34.2115 271.346 33.7761L271.851 33.2932C271.985 33.1267 272.112 32.9518 272.246 32.777C272.279 32.7165 272.318 32.6605 272.364 32.6105C272.89 31.8775 273.375 31.113 273.817 30.3209C273.936 30.1128 274.046 29.8963 274.165 29.6799C274.283 29.4634 274.394 29.2469 274.504 29.0221C274.615 28.7973 274.717 28.5725 274.828 28.3561L275.128 27.6734C275.23 27.4486 275.325 27.2071 275.42 26.9907C275.586 26.5911 275.736 26.1581 275.87 25.7751C275.87 25.7002 275.925 25.6253 275.949 25.5503C276.036 25.3172 276.107 25.0841 276.178 24.851C276.32 24.4014 276.446 23.9518 276.573 23.4856C276.85 22.3914 277.059 21.2788 277.196 20.1554C277.196 19.9639 277.236 19.7807 277.26 19.5892C277.283 19.3977 277.26 19.2645 277.299 19.098C277.339 18.9315 277.299 18.765 277.299 18.5985C277.299 18.2876 277.299 17.9796 277.299 17.6743C277.299 10.1813 272.949 6.67617 267.596 9.93149L259.7 14.752C254.371 17.9907 250.02 26.7576 250.02 34.2839Z" fill="#CCCCCC"/>
<path d="M280.15 13.1281L274.078 9.4482L271.789 11.1549L278.871 15.6758L280.15 13.1281Z" fill="#CCCCCC"/>
<path d="M259.305 46.1565L253.202 42.4516L257.987 40.9447L259.305 46.1565Z" fill="#CCCCCC"/>
<path d="M266.427 37.9481C266.427 39.2802 268.006 41.0951 269.814 41.4365C270.059 41.4864 269.996 42.0526 269.704 42.2691C268.626 42.8862 267.383 43.1032 266.174 42.8852C265.389 42.8605 264.625 42.6162 263.959 42.1773C263.293 41.7384 262.75 41.1207 262.385 40.3875L266.427 37.9481Z" fill="#4F46E5"/>
<path d="M252.46 6.0615L241.92 12.4805C234.814 16.8182 229.003 28.5074 229.003 38.5231C229.003 38.9394 229.003 39.3556 229.003 39.722C229.003 39.9468 229.003 40.1383 229.003 40.3547C229.003 40.5712 229.042 40.7377 229.066 40.9292C229.09 41.1207 229.113 41.3871 229.145 41.5952C229.287 42.7739 229.552 43.9326 229.934 45.0504C230.1 45.475 230.274 45.8829 230.463 46.2409C230.55 46.4316 230.651 46.6153 230.763 46.7904C230.797 46.8512 230.833 46.9096 230.874 46.9653C231.045 47.2799 231.246 47.5755 231.474 47.8478C231.6 47.9976 231.727 48.1642 231.861 48.2974L232.263 48.7136C232.406 48.8302 232.548 48.9717 232.69 49.0883C232.833 49.2069 232.983 49.3153 233.14 49.413L233.614 49.6961C234.215 50.0382 234.866 50.2717 235.54 50.3871C235.591 50.3687 235.647 50.3687 235.698 50.3871C235.88 50.3871 236.053 50.3871 236.227 50.3871C236.419 50.3994 236.611 50.3994 236.803 50.3871C237.311 50.3894 237.817 50.3307 238.311 50.2123C238.607 50.1503 238.9 50.0724 239.188 49.9791C240.108 49.6786 240.993 49.2679 241.825 48.7553C241.786 51.2215 241.031 53.6158 239.662 55.6156C239.409 55.9736 239.796 56.2816 240.088 56.1234C241.38 55.4166 242.524 54.4425 243.451 53.2594C245.232 51.0338 246.481 48.3899 247.091 45.5499L246.302 46.0078L252.326 42.3445C252.909 41.9903 253.471 41.5982 254.008 41.1706C253.961 40.9593 253.927 40.7452 253.905 40.5296C253.905 40.388 253.858 40.1799 253.842 39.9634C253.813 39.7788 253.795 39.5925 253.787 39.4056V39.3057C253.779 39.1671 253.779 39.0281 253.787 38.8894C253.787 38.573 253.787 38.24 253.787 37.907C253.787 29.4815 258.524 19.9819 264.619 16.2604L265.29 15.8441C265.227 6.21136 259.487 1.78213 252.46 6.0615Z" fill="white"/>
<path d="M273.737 13.6197L265.842 18.4319C260.497 21.6956 256.138 30.4625 256.138 37.9888C256.138 38.2969 256.138 38.5966 256.138 38.888C256.138 39.1794 256.138 39.196 256.138 39.3542C256.138 39.5124 256.138 39.6456 256.178 39.7955C256.191 39.9603 256.212 40.1243 256.241 40.2867C256.328 41.0278 256.492 41.7566 256.731 42.4597C256.761 42.5887 256.803 42.7142 256.857 42.8343C256.91 42.9993 256.974 43.1606 257.046 43.3172C257.11 43.4738 257.181 43.6267 257.26 43.7751C257.325 43.9204 257.401 44.0596 257.489 44.1914C257.507 44.2387 257.531 44.2834 257.56 44.3246C257.71 44.5577 257.86 44.7742 258.018 44.9823C258.109 45.1018 258.206 45.2158 258.31 45.3237L258.61 45.6317C258.712 45.733 258.82 45.8275 258.933 45.9148C259.038 46.0047 259.148 46.0854 259.265 46.1562C259.383 46.2312 259.494 46.3061 259.62 46.3727L259.984 46.5559L260.363 46.6974C260.594 46.7712 260.828 46.8323 261.065 46.8806H261.184C261.315 46.8933 261.447 46.8933 261.578 46.8806C261.722 46.9017 261.869 46.9017 262.013 46.8806C262.352 46.8826 262.69 46.8492 263.023 46.7807C263.29 46.7323 263.553 46.6684 263.813 46.5892C264.507 46.3684 265.173 46.058 265.795 45.665L268.463 44.0499C268.833 44.7753 269.379 45.3846 270.045 45.8159C270.71 46.2473 271.472 46.4853 272.253 46.5059C273.463 46.7208 274.706 46.5009 275.782 45.8815C276.067 45.69 276.138 45.1239 275.885 45.0489C274.077 44.7076 272.506 42.8926 272.506 41.5605L273.706 40.8279C274.409 40.3972 275.072 39.8983 275.688 39.3376C275.909 39.1378 276.13 38.9213 276.343 38.7048C276.743 38.314 277.123 37.8998 277.48 37.4643C277.622 37.2895 277.764 37.1229 277.906 36.9231C278.048 36.7233 278.167 36.5901 278.301 36.4153L278.419 36.2488C278.945 35.5158 279.43 34.7513 279.872 33.9592L280.227 33.3181C280.346 33.1017 280.456 32.8852 280.567 32.6604C280.678 32.4356 280.772 32.2108 280.883 31.9944L281.191 31.3117C281.293 31.0786 281.38 30.8454 281.475 30.629C281.641 30.2293 281.799 29.7964 281.933 29.4134L282.004 29.1886C282.091 28.9555 282.17 28.7224 282.233 28.4893C282.383 28.0314 282.501 27.5901 282.636 27.1239C282.913 26.0296 283.122 24.9171 283.259 23.7936C283.259 23.6021 283.299 23.419 283.315 23.2275C283.33 23.036 283.315 22.8945 283.354 22.7363C283.394 22.5781 283.354 22.4033 283.354 22.2367C283.354 21.9287 283.354 21.6123 283.354 21.3043C283.441 13.8362 279.083 10.3644 273.737 13.6197Z" fill="white"/>
<path d="M222.306 123.747C219.322 122.765 216.259 125.313 214.253 130.458C212.248 135.603 208.039 148.691 207.416 152.179C206.792 155.668 220.909 163.261 220.514 163.061C220.119 162.861 222.306 123.747 222.306 123.747Z" fill="#252525"/>
<path d="M215.745 244.853C215.319 245.019 215.216 245.869 215.153 247.55C215.105 248.824 214.845 251.047 216.258 251.488C217.671 251.93 219.748 251.705 220.656 250.506C221.785 249.007 222.551 247.692 224.162 245.86C225.567 244.278 227.075 242.796 227.643 240.573C228.157 238.559 227.73 237.693 226.428 237.11C224.643 236.277 221.832 238.925 220.435 239.341C219.227 239.699 216.163 244.686 215.745 244.853Z" fill="#252525"/>
<path d="M215.745 243.296V245.361C216.48 245.857 217.329 246.132 218.202 246.157C219.074 246.182 219.936 245.956 220.696 245.502C220.782 245.303 221.209 242.547 221.209 242.547L215.745 243.296Z" fill="#BD8966"/>
<path d="M231.608 256.759C231.608 256.759 231.047 258.557 230.747 260.089C230.503 261.338 230.163 263.419 230.574 264.368C230.984 265.317 232.611 265.917 235.114 265.892C236.74 265.892 239.275 267.049 241.004 268.065C242.733 269.081 246.53 269.539 248.417 269.305C250.644 269.031 252.957 267.64 253.321 266.691C253.684 265.742 253.202 264.701 247.944 262.337C247.896 262.337 240.633 259.839 238.082 256.867L231.608 256.759Z" fill="#252525"/>
<path d="M231.607 254.527C231.607 254.527 231.607 256.059 231.607 256.933C231.607 257.807 232.586 259.115 235.129 259.023C236.913 258.956 238.153 258.449 238.082 256.9V254.66L231.607 254.527Z" fill="#BD8966"/>
<path d="M214.466 215.88C214.902 212.221 215.677 208.616 216.779 205.115C216.779 205.115 216.084 195.832 215.745 187.032C215.382 177.524 215.745 165.569 215.595 163.204C215.595 163.204 244.69 156.993 245.211 167.983C245.732 178.973 244.058 206.947 243.719 211.776C243.379 216.605 242.582 220.876 241.634 228.702C240.687 236.528 238.081 254.661 238.081 254.661C237.075 255.202 235.957 255.473 234.828 255.449C233.699 255.426 232.592 255.11 231.607 254.528C231.607 254.528 229.562 232.548 229.775 226.978C229.941 222.841 230.616 218.744 231.781 214.79L230.746 197.847C230.257 189.963 229.744 186.191 229.625 182.753L229.001 182.42C229.001 182.42 228.362 196.024 228.022 200.853C227.683 205.681 226.949 210.311 225.654 219.277C224.501 227.053 221.082 243.513 221.082 243.513C217.758 245.411 215.776 243.272 215.776 243.272C215.776 243.272 213.582 222.624 214.466 215.88Z" fill="#2C2C2C"/>
<path d="M229.626 182.777C229.626 182.777 222.567 179.106 219.038 175.8C219.038 175.8 222.315 180.671 226.626 182.836C226.626 182.836 228.157 199.728 228.149 199.395L229.034 182.744L229.626 182.777Z" fill="#191919"/>
<path d="M235.91 120.268L234.189 130.259L225.63 129.601L227.422 118.27L235.91 120.268Z" fill="#BD8966"/>
<path d="M216.59 128.868C217.435 126.154 220.703 123.198 223.972 123.873C228.833 124.74 233.624 126.001 238.302 127.644C241.295 128.768 244.019 131.499 244.271 141.889L245.787 172.827L242.163 173.66L240.9 166.65L240.316 173.66C236.526 174.659 229.949 173.835 225.63 172.827C216.629 170.754 215.548 166.816 215.548 166.816C215.548 166.816 215.429 149.407 215.698 141.889C215.95 135.462 216.005 130.7 216.59 128.868Z" fill="#191919"/>
<path d="M242.242 108.429C242.242 108.429 244.319 111.667 244.05 112.009C243.57 112.35 243.035 112.595 242.471 112.733L242.242 108.429Z" fill="#BD8966"/>
<path d="M235.91 98.1721C237.908 99.2377 241.358 101.203 242.305 108.904C243.285 116.813 241.998 119.361 240.987 120.41C240.3 121.117 236.573 121.159 234.71 120.568C232.341 119.827 227.115 117.721 224.714 113.658C221.888 108.879 221.256 102.476 224.446 99.9288C228.923 96.3488 234.221 97.2729 235.91 98.1721Z" fill="#BD8966"/>
<path d="M242.723 100.819C242.068 102.717 240.963 107.363 236.368 109.303C236.368 109.303 235.712 106.339 233.352 106.655C230.991 106.972 230.588 110.144 232.041 112.117C233.494 114.09 234.899 113.374 234.899 113.374C234.899 113.374 235.215 117.62 232.53 119.543C232.53 119.543 229.285 121.708 225.851 120.043C224.272 119.294 222.116 115.389 220.837 112.184C218.121 105.407 217.734 99.9699 221.832 98.2549C222.337 95.1744 223.656 94.0171 226.301 93.4426C231.994 92.2021 236.297 96.1485 241.081 95.4574C243.584 95.0911 243.474 98.6545 242.723 100.819Z" fill="#191919"/>
<path d="M221.738 99.2881L219.054 97.5397C219.158 97.3435 219.298 97.1716 219.467 97.0343C219.636 96.897 219.829 96.7972 220.035 96.7407C220.242 96.6843 220.457 96.6725 220.667 96.706C220.878 96.7396 221.08 96.8177 221.262 96.9358C221.443 97.0539 221.6 97.2095 221.723 97.3932C221.845 97.5769 221.932 97.7849 221.976 98.0047C222.021 98.2245 222.023 98.4515 221.982 98.672C221.941 98.8926 221.858 99.1022 221.738 99.2881Z" fill="#191919"/>
<path d="M235.278 123.906L236.257 126.895C236.257 126.895 235.539 128.227 232.483 128.294C229.428 128.36 226.167 127.336 225.156 125.963C224.926 125.694 224.756 125.374 224.657 125.027C224.559 124.68 224.535 124.314 224.588 123.956C224.588 123.956 225.804 121.125 226.956 121.25L226.767 122.483C226.767 122.483 227.027 123.49 229.799 124.264C234.11 125.471 235.278 123.906 235.278 123.906Z" fill="#2C2C2C"/>
<path d="M259.834 143.771C261.066 142.281 261.539 138.976 263.182 136.711C264.824 134.446 265.432 132.79 266.079 133.78C266.94 135.087 264.998 137.71 265.432 137.943C265.866 138.176 267.469 141.656 267.635 143.571C267.801 145.486 262.984 150.315 262.984 150.315L259.834 143.771Z" fill="#BD8966"/>
<path d="M235.279 123.906C235.478 123.902 235.674 123.955 235.846 124.059C236.019 124.163 236.161 124.315 236.258 124.498C236.741 125.417 237.174 126.365 237.553 127.337L236.258 126.895L235.279 123.906Z" fill="#2C2C2C"/>
<path d="M265.297 137.676C265.297 137.676 271.116 137.143 271.961 137.676C272.805 138.209 272.553 140.865 271.961 142.497C271.368 144.129 268.4 145.186 265.644 147.151C265.644 146.851 265.297 137.676 265.297 137.676Z" fill="#BD8966"/>
<path d="M237.553 127.37C240.056 128.295 242.243 129.352 244.58 133.981C247.58 139.925 253.265 149.433 253.265 149.433L259.81 143.347C259.81 143.347 260.797 142.34 262.637 145.545C263.176 146.408 263.517 147.391 263.634 148.417C263.75 149.443 263.639 150.484 263.308 151.456C263.308 151.456 255.752 160.806 254.307 162.23C252.862 163.653 250.47 162.546 248.914 160.307C247.359 158.067 237.529 145.121 237.529 145.121C237.529 145.121 232.192 137.644 237.553 127.37Z" fill="#191919"/>
<path d="M305.066 111.826H286.425C285.721 111.826 285.046 111.531 284.549 111.007C284.051 110.482 283.772 109.771 283.772 109.029V77.7992C283.772 75.3416 284.698 72.9847 286.346 71.2469C287.994 69.5091 290.229 68.5328 292.559 68.5328H298.955C301.281 68.5394 303.51 69.5186 305.153 71.2557C306.796 72.9928 307.719 75.3459 307.719 77.7992V109.029C307.719 109.771 307.439 110.482 306.942 111.007C306.444 111.531 305.769 111.826 305.066 111.826Z" fill="#191919"/>
<path d="M283.283 101.169C281.475 106.789 278.443 122.958 278.443 122.958C278.443 122.958 272.127 131.1 270.066 133.073C268.937 134.172 266.395 136.145 266.395 136.145L271.013 139.725C275.184 136.343 279.101 132.627 282.73 128.611C283.537 127.705 284.104 126.591 284.372 125.38L287.531 111.094C287.531 111.094 287.531 99.6042 289.197 98.0973C290.863 96.5903 291.344 96.274 291.344 96.274C289.204 96.1074 284.704 96.7485 283.283 101.169Z" fill="#D39972"/>
<path d="M292.331 96.1079C289.386 95.7499 285.612 95.8165 283.772 99.2883C281.933 102.76 278.869 120.71 278.869 120.71C278.869 120.71 281.767 123.083 284.893 123.041L292.331 96.1079Z" fill="#4F46E5"/>
<path d="M284.143 112.833C284.673 115.509 284.877 118.245 284.751 120.976C284.522 124.572 282.169 130.85 282.169 130.85C282.169 130.85 284.009 132.981 289.196 132.124C293.42 131.433 291.928 117.97 289.504 115.389C288.09 113.849 286.173 112.935 284.143 112.833Z" fill="#4F46E5"/>
<path opacity="0.3" d="M284.143 112.833C284.673 115.509 284.877 118.245 284.751 120.976C284.522 124.572 282.169 130.85 282.169 130.85C282.169 130.85 284.009 132.981 289.196 132.124C293.42 131.433 291.928 117.97 289.504 115.389C288.09 113.849 286.173 112.935 284.143 112.833Z" fill="#141414"/>
<path d="M293.903 207.912C293.936 208.526 293.79 209.136 293.484 209.66C292.703 211.021 291.785 212.288 290.745 213.44C289.284 215.105 287.097 217.062 285.526 218.502C284.657 219.335 284.626 220.517 285.873 220.942C288.198 221.539 290.652 221.178 292.734 219.934C294.313 219.052 296.508 214.939 297.803 214.356C299.295 213.648 300.124 213.299 300.63 212.574C301.012 212.163 301.25 211.626 301.306 211.053C301.362 210.48 301.232 209.904 300.938 209.419C300.235 208.037 299.177 205.914 298.743 206.155L298.877 206.588C298.537 207.712 295.632 209.019 294.14 208.711L293.903 207.912Z" fill="#191919"/>
<path d="M309.117 160.939C309.788 153.446 311.714 141.391 309.74 132.466L283.527 133.931C282.801 142.731 281.948 170.206 282.864 173.353C283.922 177.066 293.373 202.767 293.918 207.937C293.955 208.544 293.809 209.148 293.499 209.661C292.719 211.025 291.801 212.295 290.76 213.449C290.049 214.282 289.181 215.114 288.265 215.947C288.188 216.065 288.142 216.203 288.13 216.346C288.13 217.179 290.12 217.437 291.289 217.079C292.746 216.537 294.001 215.519 294.873 214.173C295.544 213.233 297.052 211.426 298.031 210.069C298.358 209.65 298.636 209.192 298.86 208.703C299.122 208.094 299.167 207.405 298.987 206.763L298.924 206.555C298.411 204.87 298.093 203.126 297.976 201.36C297.613 195.69 296.689 182.594 295.836 179.106C295.244 176.564 294.345 174.113 293.16 171.813L296.152 147.26C296.152 147.26 296.468 168.907 297.4 174.427C298.134 178.848 298.418 184.376 299.279 191.961C300.068 199.22 300.984 212.009 300.984 212.009C301.008 212.013 301.032 212.013 301.055 212.009V218.12H305.958V214.573C305.958 212.972 306.085 211.373 306.337 209.794C307.127 204.965 308.769 193.917 309.109 190.179C309.646 184.251 307.616 176.8 307.616 176.8C307.616 176.8 308.461 168.249 309.117 160.939Z" fill="#BD8966"/>
<path d="M299.88 96.3645C299.88 96.3645 306.93 97.1971 307.775 97.6217C301.159 102.525 306.52 113.44 306.52 113.44L303.985 121.824C306.804 125.629 309.236 127.894 310.744 132.065C312.418 136.727 313.902 143.662 313.507 157.874C307.191 162.87 287.973 162.328 280.488 157.874C280.488 157.874 281.752 145.327 283.244 135.578C284.231 129.142 286.56 122.132 286.165 119.76C283.196 110.135 283.007 108.403 283.544 106.255C285.02 100.211 290.863 96.1231 292.3 96.1231L299.88 96.3645Z" fill="#4F46E5"/>
<path opacity="0.6" d="M299.88 96.3645C299.88 96.3645 306.93 97.1971 307.775 97.6217C301.159 102.525 306.52 113.44 306.52 113.44L303.985 121.824C306.804 125.629 309.236 127.894 310.744 132.065C312.418 136.727 313.902 143.662 313.507 157.874C307.191 162.87 287.973 162.328 280.488 157.874C280.488 157.874 281.752 145.327 283.244 135.578C284.231 129.142 286.56 122.132 286.165 119.76C283.196 110.135 283.007 108.403 283.544 106.255C285.02 100.211 290.863 96.1231 292.3 96.1231L299.88 96.3645Z" fill="white"/>
<path d="M301.009 215.53V214.789C300.393 217.279 299.161 219.551 297.44 221.375C295.861 222.882 293.729 224.63 293.176 226.32C292.624 228.01 295.711 228.768 297.748 228.551C299.722 228.297 301.54 227.294 302.864 225.729C304.159 224.164 304.135 223.098 304.735 222.232C305.336 221.366 306.733 220.417 307.057 219.418C307.158 218.486 307.061 217.542 306.772 216.654C306.543 215.73 306.291 214.706 305.983 214.789V215.364C305.273 215.953 304.392 216.267 303.488 216.254C302.801 216.271 301.001 216.113 301.009 215.53Z" fill="#191919"/>
<path d="M305.959 215.346C305.248 215.936 304.368 216.25 303.464 216.237C302.737 216.237 300.969 216.112 300.977 215.529V214.788C300.361 217.278 299.129 219.551 297.408 221.374L296.216 222.498C295.379 223.48 295.616 224.338 297.582 224.513C299.548 224.688 301.277 223.439 302.761 221.516C304.027 219.581 305.098 217.514 305.959 215.346Z" fill="#BD8966"/>
<path d="M287.704 73.636C286.441 74.427 284.878 77.7989 285.028 84.809C285.162 90.7702 286.994 92.2438 287.917 92.6684C288.841 93.093 290.61 92.8349 292.331 92.5352V96.1069C292.331 96.1069 289.962 99.0292 290.096 100.669C290.231 102.309 293.539 102.692 295.773 101.094C297.387 99.7748 298.775 98.1757 299.879 96.365L299.839 88.1476C299.839 88.1476 300.858 89.18 302.579 87.5981C304 86.291 304.474 84.0764 303.369 82.8941C303.082 82.6096 302.734 82.4015 302.356 82.2873C301.977 82.1731 301.578 82.156 301.191 82.2375C300.805 82.3189 300.443 82.4966 300.135 82.7556C299.827 83.0147 299.582 83.3476 299.421 83.7267C299.421 83.7267 298.466 80.921 294.494 79.5639C290.91 78.3067 288.96 76.883 287.704 73.636Z" fill="#BD8966"/>
<path d="M291.345 83.3188C291.345 83.4655 291.386 83.609 291.463 83.7314C291.539 83.8538 291.649 83.9497 291.777 84.0073C291.905 84.0649 292.046 84.0815 292.183 84.0552C292.32 84.0289 292.446 83.9607 292.547 83.8593C292.647 83.7578 292.717 83.6274 292.748 83.4843C292.779 83.3412 292.769 83.1917 292.72 83.0543C292.671 82.917 292.585 82.7978 292.473 82.7116C292.36 82.6254 292.226 82.576 292.087 82.5695C291.992 82.5673 291.897 82.5849 291.808 82.6214C291.719 82.6578 291.638 82.7124 291.569 82.782C291.5 82.8516 291.444 82.9348 291.406 83.0269C291.368 83.119 291.347 83.2182 291.345 83.3188Z" fill="#191919"/>
<path d="M291.155 88.3648L289.505 88.9227C289.534 89.0388 289.585 89.1475 289.655 89.2424C289.725 89.3372 289.812 89.4162 289.912 89.4745C290.011 89.5328 290.121 89.5693 290.234 89.5818C290.347 89.5943 290.462 89.5825 290.571 89.5471C290.794 89.467 290.979 89.2994 291.087 89.0793C291.196 88.8592 291.22 88.6033 291.155 88.3648Z" fill="#D39972"/>
<path d="M285.517 81.0135L286.954 79.9645C286.894 79.8621 286.814 79.7737 286.72 79.7048C286.626 79.636 286.519 79.588 286.407 79.5638C286.295 79.5397 286.179 79.5399 286.067 79.5644C285.954 79.5889 285.848 79.6372 285.754 79.7064C285.562 79.8494 285.429 80.0656 285.385 80.3095C285.341 80.5533 285.388 80.8058 285.517 81.0135Z" fill="#191919"/>
<path d="M293.413 81.5792L291.968 80.5301C292.029 80.4279 292.108 80.3397 292.202 80.2707C292.296 80.2017 292.402 80.1533 292.514 80.1285C292.626 80.1036 292.742 80.1028 292.854 80.126C292.966 80.1492 293.073 80.1961 293.168 80.2637C293.359 80.4095 293.491 80.6264 293.536 80.8706C293.582 81.1147 293.537 81.368 293.413 81.5792Z" fill="#191919"/>
<path d="M285.849 82.7698C285.847 82.9169 285.887 83.0612 285.963 83.1847C286.039 83.3082 286.147 83.4054 286.275 83.4642C286.403 83.523 286.544 83.5409 286.682 83.5155C286.819 83.4901 286.946 83.4227 287.048 83.3215C287.149 83.2204 287.22 83.09 287.251 82.9468C287.283 82.8035 287.274 82.6535 287.225 82.5157C287.176 82.3779 287.09 82.2582 286.977 82.1716C286.865 82.085 286.73 82.0354 286.591 82.0288C286.4 82.0244 286.214 82.0997 286.075 82.2384C285.936 82.3772 285.855 82.5681 285.849 82.7698Z" fill="#191919"/>
<path d="M289.197 82.3448L289.086 86.8573L286.836 86.1246L289.197 82.3448Z" fill="#D39972"/>
<path d="M292.331 92.5365C294.147 92.2784 297.858 91.1461 298.474 89.5892C298.239 90.3778 297.782 91.0721 297.163 91.579C296.042 92.5864 292.331 93.7271 292.331 93.7271V92.5365Z" fill="#D39972"/>
<path d="M305.209 117.254L300.227 124.364L303.985 121.825L305.209 117.254Z" fill="#4F46E5"/>
<path d="M265.96 136.144C264.894 137.593 264.239 140.407 263.679 141.356C263.118 142.305 262.447 143.129 263.679 143.304C264.91 143.479 266.71 140.94 267.382 139.4C267.721 138.531 268.362 137.831 269.174 137.443C268.597 137.235 268.897 134.796 268.495 134.454C268.495 134.454 266.395 135.362 265.96 136.144Z" fill="#D39972"/>
<path d="M265.645 147.134C266.758 146.26 266.797 145.186 267.01 143.479C267.224 141.773 271.685 139.924 271.827 141.198C271.969 142.472 272.371 143.538 271.037 145.086C269.703 146.635 267.682 148.283 265.645 147.134Z" fill="#D39972"/>
<path d="M299.88 96.3651C299.88 96.3651 306.48 96.9729 307.775 97.6223C309.07 98.2717 311.225 102.201 309.299 107.904C307.372 113.607 305.62 120.318 305.817 121.667C306.014 123.015 310.617 129.992 310.617 129.992C309.348 130.981 307.912 131.707 306.386 132.132L304.017 126.704L304.57 132.473C302.19 133.083 299.746 133.363 297.298 133.306C297.298 133.306 295.063 111.143 299.88 96.3651Z" fill="#4F46E5"/>
<path d="M316.144 123.549C316.673 120.269 316.144 119.195 315.054 115.981L309.527 119.753C309.981 120.966 310.247 122.247 310.317 123.549C310.269 124.498 309.046 133.906 307.901 137.186C307.695 137.77 307.289 138.251 306.764 138.535C305.625 139.268 304.594 140.171 303.7 141.216C302.856 142.049 302.177 142.199 302.263 142.482C302.394 142.788 302.627 143.034 302.919 143.171C303.21 143.307 303.539 143.326 303.843 143.223C304.53 142.987 305.19 142.669 305.809 142.273C305.26 143.498 304.53 144.622 303.645 145.604C301.616 147.885 301.434 149.367 305.224 149.675C307.593 149.866 309.575 148.468 311.714 143.098C312.377 141.129 312.923 139.119 313.349 137.078C314.501 132.424 315.623 126.854 316.144 123.549Z" fill="#BD8966"/>
<path d="M307.774 97.6224C310.435 98.8796 311.193 101.361 312.18 105.007C313.167 108.654 316.262 119.594 316.262 119.594C316.262 119.594 313.609 122.924 309.945 121.992L305.208 109.861C305.208 109.861 302.997 101.943 307.774 97.6224Z" fill="#4F46E5"/>
<path d="M199.908 28.4839C199.882 27.2718 199.571 26.0829 199 25.0134C198.429 23.9439 197.614 23.024 196.622 22.3282C195.706 21.747 194.828 21.66 194.187 21.9896C190.319 23.9301 163.143 41.3536 161.408 42.214H161.385C161.203 42.3353 161.055 42.5031 160.959 42.7002C160.862 42.8973 160.82 43.1165 160.836 43.3353C160.847 43.9463 161.002 44.546 161.289 45.0854C161.576 45.6248 161.987 46.0884 162.488 46.4383C162.662 46.5737 162.868 46.6603 163.086 46.6893C163.304 46.7182 163.526 46.6885 163.729 46.6031H163.756C166.502 45.0882 193.326 33.6556 198.809 30.7173C199.455 30.3604 199.871 29.5915 199.908 28.4839Z" fill="#4F46E5"/>
<path opacity="0.1" d="M198.842 24.7255C198.304 23.7604 197.543 22.9381 196.622 22.3273C195.707 21.7461 194.837 21.6591 194.196 21.9841L194.114 22.0298C190.585 23.8331 170.361 36.7348 163.555 40.9316L163.509 40.9591L163.235 41.1284L163.152 41.1788L162.997 41.2749L162.814 41.3847C162.095 41.8424 161.61 42.1078 161.441 42.2039H161.418C161.36 42.2385 161.306 42.28 161.258 42.3275C161.129 42.4593 161.029 42.6155 160.962 42.7869C160.895 42.9583 160.863 43.1413 160.869 43.3252C160.86 43.4547 160.86 43.5847 160.869 43.7143C160.869 43.7646 160.869 43.8149 160.891 43.8653C160.914 43.9156 160.919 44.0209 160.937 44.1033C160.956 44.1857 160.969 44.2314 160.988 44.2909C161.006 44.3504 161.033 44.4419 161.061 44.5152C161.088 44.5884 161.102 44.625 161.12 44.6799V44.7074L198.842 24.7255Z" fill="#141414"/>
<path d="M162.484 46.4423C161.985 46.0933 161.576 45.6317 161.289 45.095C161.002 44.5583 160.845 43.9616 160.832 43.3531C160.873 42.2364 161.669 41.8061 162.617 42.3965C163.116 42.7461 163.526 43.2084 163.813 43.7459C164.1 44.2835 164.256 44.8811 164.269 45.4904C164.232 46.6071 163.431 47.0419 162.484 46.4423Z" fill="#4F46E5"/>
<path d="M154.36 47.1924C154.371 47.66 154.491 48.1184 154.712 48.531C154.932 48.9435 155.246 49.2986 155.628 49.5678C155.761 49.6704 155.919 49.736 156.085 49.7577C156.252 49.7794 156.421 49.7565 156.575 49.6913L163.148 46.1901C163.287 46.0975 163.4 45.9694 163.474 45.8191C163.548 45.6687 163.58 45.5015 163.569 45.3343C163.559 44.8667 163.439 44.4079 163.218 43.9953C162.998 43.5826 162.684 43.2276 162.301 42.959C162.169 42.8551 162.011 42.7885 161.845 42.7659C161.678 42.7434 161.509 42.7658 161.354 42.8309L154.781 46.332C154.641 46.4251 154.528 46.5539 154.454 46.7051C154.38 46.8563 154.348 47.0246 154.36 47.1924Z" fill="#191919"/>
<path d="M154.79 46.332C154.648 46.424 154.533 46.5523 154.458 46.7036C154.382 46.8549 154.348 47.0237 154.36 47.1924C154.358 47.5398 154.426 47.8839 154.561 48.2039L163.037 43.6821C162.845 43.3951 162.598 43.1493 162.31 42.959C162.178 42.8551 162.02 42.7885 161.853 42.7659C161.687 42.7434 161.517 42.7658 161.362 42.8309L154.79 46.332Z" fill="#252525"/>
<path d="M162.796 53.0237C162.796 48.8132 160.013 44.6026 154.443 41.3898C143.312 34.9595 125.262 34.9595 114.127 41.3898C108.561 44.5934 105.779 48.8132 105.779 53.0237V60.8041C105.779 65.0147 108.561 69.2253 114.131 72.4427C125.262 78.8501 143.312 78.8501 154.443 72.4427C160.013 69.239 162.796 65.0147 162.796 60.8041V53.0237ZM115.495 43.7742C120.465 40.9046 127.134 39.3257 134.26 39.3257C141.386 39.3257 148.068 40.9046 153.024 43.7742C157.519 46.3692 159.995 49.6553 159.995 53.0283C159.995 56.4013 157.519 59.6828 153.024 62.2778C148.054 65.1474 141.386 66.7264 134.26 66.7264C127.134 66.7264 120.452 65.1474 115.495 62.2778C110.996 59.6828 108.525 56.3968 108.525 53.0283C108.525 49.6599 111.01 46.3692 115.495 43.7742Z" fill="#4F46E5"/>
<path opacity="0.3" d="M114.122 64.6626C125.257 71.0928 143.303 71.0928 154.438 64.6626C165.573 58.2323 165.573 47.8157 154.438 41.39C143.303 34.9644 125.257 34.9598 114.122 41.39C102.986 47.8203 102.996 58.2369 114.122 64.6626ZM108.529 53.0286C108.529 49.6556 111.005 46.3695 115.499 43.7745C120.474 40.9049 127.142 39.3259 134.264 39.3259C141.385 39.3259 148.072 40.9049 153.028 43.7745C157.523 46.3695 159.999 49.6556 159.999 53.0286C159.999 56.4016 157.523 59.6831 153.028 62.2781C148.054 65.1477 141.385 66.7267 134.264 66.7267C127.142 66.7267 120.456 65.1477 115.499 62.2781C111.009 59.6831 108.533 56.397 108.533 53.0286H108.529Z" fill="white"/>
<path d="M108.533 53.0229C108.549 54.3943 108.934 55.7362 109.645 56.9085C110.776 54.9497 112.767 53.1144 115.508 51.5354C120.474 48.6613 127.147 47.0823 134.273 47.0823C141.399 47.0823 148.081 48.6613 153.037 51.5354C155.783 53.1144 157.77 54.9497 158.905 56.9085C159.613 55.7349 159.995 54.3936 160.012 53.0229C160.012 49.6544 157.536 46.3683 153.037 43.7733C148.072 40.9038 141.399 39.3248 134.273 39.3248C127.147 39.3248 120.46 40.9038 115.508 43.7733C111.009 46.3683 108.533 49.6544 108.533 53.0229Z" fill="#4F46E5"/>
<path opacity="0.1" d="M108.533 53.0229C108.549 54.3943 108.934 55.7362 109.645 56.9085C110.776 54.9497 112.767 53.1144 115.508 51.5354C120.474 48.6613 127.147 47.0823 134.273 47.0823C141.399 47.0823 148.081 48.6613 153.037 51.5354C155.783 53.1144 157.77 54.9497 158.905 56.9085C159.613 55.7349 159.995 54.3936 160.012 53.0229C160.012 49.6544 157.536 46.3683 153.037 43.7733C148.072 40.9038 141.399 39.3248 134.273 39.3248C127.147 39.3248 120.46 40.9038 115.508 43.7733C111.009 46.3683 108.533 49.6544 108.533 53.0229Z" fill="#141414"/>
<path opacity="0.4" d="M115.494 47.2888C120.469 44.4192 127.138 42.8356 134.259 42.8356C141.38 42.8356 148.067 44.4192 153.024 47.2888C156.731 49.4307 159.06 52.0394 159.765 54.7808C159.06 57.5269 156.731 60.1356 153.024 62.2775C148.049 65.1471 141.38 66.726 134.259 66.726C127.138 66.726 120.451 65.1471 115.494 62.2775C111.787 60.1356 109.458 57.5223 108.753 54.7808C109.467 52.0394 111.796 49.4307 115.494 47.2888Z" fill="white"/>
<path opacity="0.1" d="M127.568 69.0103V76.7907C122.643 76.1042 117.957 74.6534 114.131 72.4337C108.561 69.23 105.778 65.0057 105.778 60.7905V53.0101C105.78 52.1523 105.894 51.2984 106.117 50.4701C104.744 55.4816 107.435 60.786 114.121 64.6579C117.975 66.8867 122.643 68.3375 127.568 69.0103Z" fill="#141414"/>
</svg>
