<svg width="24" height="24" viewBox="0 0 24 24" fill="none" xmlns="http://www.w3.org/2000/svg">
<path d="M10.502 4.1709C10.6437 4.17092 10.7841 4.19871 10.915 4.25293C11.0461 4.30721 11.1653 4.38701 11.2656 4.4873C11.3659 4.58758 11.4457 4.70689 11.5 4.83789C11.5542 4.96884 11.582 5.10926 11.582 5.25098C11.582 5.39269 11.5542 5.53312 11.5 5.66406C11.4457 5.79507 11.3659 5.91437 11.2656 6.01465L6.43555 10.8418L6.35547 10.9219H20.25C20.5359 10.9219 20.8105 11.0351 21.0127 11.2373C21.2149 11.4395 21.3281 11.7141 21.3281 12C21.3281 12.2859 21.2148 12.5605 21.0127 12.7627C20.8105 12.9649 20.5359 13.0781 20.25 13.0781H6.35547L6.43555 13.1582L11.2656 17.9873C11.4681 18.1899 11.582 18.4646 11.582 18.751C11.582 19.0374 11.4681 19.3121 11.2656 19.5146C11.0631 19.7172 10.7883 19.831 10.502 19.8311C10.2155 19.8311 9.94083 19.7171 9.73828 19.5146L2.98828 12.7646C2.88777 12.6645 2.80734 12.5451 2.75293 12.4141C2.69864 12.2831 2.6709 12.1427 2.6709 12.001C2.6709 11.8592 2.69864 11.7188 2.75293 11.5879C2.80734 11.4568 2.88777 11.3375 2.98828 11.2373L9.73828 4.4873C9.83856 4.38705 9.95786 4.30719 10.0889 4.25293C10.2198 4.19876 10.3603 4.1709 10.502 4.1709Z" fill="#4F46E5" stroke="#4F46E5" stroke-width="0.09375"/>
</svg>
