<svg width="24" height="24" viewBox="0 0 24 24" fill="none" xmlns="http://www.w3.org/2000/svg">
<path d="M13.501 4.16803C13.7874 4.16804 14.0621 4.28189 14.2646 4.48444L21.0146 11.2344C21.1151 11.3347 21.1947 11.4539 21.249 11.585C21.3034 11.7162 21.3312 11.8571 21.3311 11.9991C21.3309 12.1409 21.3026 12.2812 21.248 12.4122C21.2071 12.5105 21.1526 12.6028 21.085 12.6846L21.0127 12.7628L14.2627 19.5128C14.0601 19.7153 13.7855 19.8292 13.499 19.8292C13.2126 19.8292 12.9379 19.7153 12.7354 19.5128C12.5328 19.3102 12.419 19.0355 12.4189 18.7491C12.4189 18.4626 12.5328 18.188 12.7354 17.9854L17.5645 13.1583L17.6445 13.0782H3.75C3.46408 13.0782 3.18949 12.9649 2.9873 12.7628C2.78514 12.5606 2.6719 12.286 2.67188 12.0001C2.67188 11.7141 2.78514 11.4395 2.9873 11.2374C3.18949 11.0352 3.46406 10.9219 3.75 10.9219H17.6445L17.5645 10.8419L12.7373 6.01178C12.5348 5.80923 12.4209 5.53456 12.4209 5.24811C12.4209 4.96165 12.5348 4.68699 12.7373 4.48444C12.9399 4.28189 13.2145 4.16803 13.501 4.16803Z" fill="white" stroke="white" stroke-width="0.09375"/>
</svg>
