<svg width="80" height="80" viewBox="0 0 80 80" fill="none" xmlns="http://www.w3.org/2000/svg">
<path d="M64.649 63.2839C64.4841 63.1179 64.4572 62.8604 64.5774 62.6597C65.9131 60.4293 66.667 57.7901 66.667 55C66.667 46.6667 60.0003 40 51.667 40C43.3337 40 36.667 46.6667 36.667 55C36.667 63.3333 43.3337 70 51.667 70C54.4266 70 57.0353 69.2454 59.2633 67.9372C59.4626 67.8202 59.7164 67.8476 59.8811 68.0096L69.6468 77.6188C69.8425 77.8114 70.1569 77.8101 70.351 77.616L74.2812 73.6857C74.4761 73.4909 74.4766 73.1752 74.2824 72.9798L64.649 63.2839ZM51.667 63.3333C49.4569 63.3333 47.3372 62.4554 45.7744 60.8926C44.2116 59.3298 43.3337 57.2101 43.3337 55C43.3337 52.7899 44.2116 50.6702 45.7744 49.1074C47.3372 47.5446 49.4569 46.6667 51.667 46.6667C53.8771 46.6667 55.9967 47.5446 57.5596 49.1074C59.1224 50.6702 60.0003 52.7899 60.0003 55C60.0003 57.2101 59.1224 59.3298 57.5596 60.8926C55.9967 62.4554 53.8771 63.3333 51.667 63.3333ZM17.167 66.6667C16.8909 66.6667 16.667 66.4428 16.667 66.1667V40.5C16.667 40.2239 16.4431 40 16.167 40H7.96997C7.51173 40 7.29488 39.4349 7.63549 39.1284L39.6658 10.301C39.856 10.1299 40.1447 10.1299 40.3348 10.301L72.3652 39.1284C72.7058 39.4349 72.4889 40 72.0307 40H67.4802C67.344 40 67.2139 39.9442 67.1186 39.8469C63.1951 35.8362 57.7236 33.3333 51.667 33.3333C39.7337 33.3333 30.0003 43.0667 30.0003 55C30.0003 58.9685 31.0792 62.7098 32.9487 65.8834C33.1501 66.2252 32.909 66.6667 32.5123 66.6667H17.167Z" fill="white"/>
</svg>
